<?xml version="1.0" encoding="iso-8859-1"?>
<!-- Generator: Adobe Illustrator 19.0.0, SVG Export Plug-In . SVG Version: 6.00 Build 0)  -->
<svg version="1.1" id="Capa_1" xmlns="http://www.w3.org/2000/svg" xmlns:xlink="http://www.w3.org/1999/xlink" x="0px" y="0px"
	 viewBox="0 0 511.999 511.999" style="enable-background:new 0 0 511.999 511.999;" xml:space="preserve">
<path style="fill:#FFFFFF;" d="M321.035,251.904h-130.07c-74.001,0-133.991,59.99-133.991,133.991v116.084h398.053V385.894
	C455.026,311.893,395.036,251.904,321.035,251.904z"/>
<polygon style="fill:#4DBAF6;" points="179.745,254.478 256.032,412.793 332.319,254.478 "/>
<path style="fill:#FEDA9B;" d="M346.928,100.954v59.998c0,50.221-40.712,90.934-90.934,90.934l0,0
	c-50.221,0-90.934-40.712-90.934-90.934v-59.998c0-50.221,40.712-90.934,90.934-90.934l0,0
	C306.215,10.021,346.928,50.733,346.928,100.954z"/>
<g>
	<path style="fill:#ADE5FF;" d="M300.148,155.301h-16.619c-15.189,0-27.5-12.313-27.5-27.5v-3.621c0-15.188,12.313-27.5,27.5-27.5
		h16.62c15.189,0,27.5,12.313,27.5,27.5v3.621C327.649,142.989,315.336,155.301,300.148,155.301z"/>
	<path style="fill:#ADE5FF;" d="M228.527,155.301h-16.62c-15.189,0-27.5-12.313-27.5-27.5v-3.621c0-15.188,12.313-27.5,27.5-27.5
		h16.62c15.189,0,27.5,12.313,27.5,27.5v3.621C256.028,142.989,243.716,155.301,228.527,155.301z"/>
</g>
<path d="M64.062,447.977c1.863-1.863,2.936-4.448,2.936-7.084s-1.072-5.221-2.936-7.085c-1.864-1.864-4.449-2.936-7.085-2.936
	s-5.221,1.071-7.095,2.936c-1.863,1.864-2.926,4.449-2.926,7.085s1.063,5.221,2.926,7.084c1.874,1.864,4.459,2.937,7.095,2.937
	S62.197,449.841,64.062,447.977z"/>
<path d="M321.035,241.883h-4.757c23.876-17.83,39.625-45.962,40.614-77.749c2.232-0.222,4.447-0.57,6.6-1.055
	c14.188-3.192,26.285-11.716,34.061-24.006c7.777-12.289,10.301-26.871,7.11-41.061c-2.473-10.991-8.233-20.831-16.468-28.315
	c1.194-6.651,0.925-12.948-0.813-18.79c-3.806-12.802-11.74-22.498-22.946-28.04c-15.487-7.662-33.617-5.596-45.417-1.109
	c-0.109,0.042-0.21,0.094-0.318,0.139C301.467,8.197,279.671,0,255.994,0c-23.666,0-45.452,8.189-62.685,21.877
	c-0.092-0.038-0.179-0.084-0.274-0.12c-11.8-4.485-29.928-6.55-45.417,1.109c-11.206,5.542-19.141,15.239-22.946,28.04
	c-1.737,5.842-2.007,12.139-0.813,18.79c-8.237,7.485-13.996,17.324-16.468,28.316c-3.193,14.188-0.667,28.771,7.11,41.06
	c7.776,12.29,19.872,20.814,34.061,24.006c2.131,0.48,4.324,0.826,6.534,1.048c0.987,31.789,16.739,59.924,40.615,77.755h-4.746
	c-79.408,0-144.012,64.604-144.012,144.012v14.916c0,5.533,4.487,10.021,10.021,10.021s10.021-4.487,10.021-10.021v-14.916
	c0-39.257,18.346-74.306,46.909-97.036l43.475,43.474l-11.36,14.032c-2.538,3.135-2.948,7.488-1.042,11.042l72.172,134.552h-89.394
	v-79.833c0-5.533-4.487-10.021-10.021-10.021c-5.533,0-10.021,4.487-10.021,10.021v79.833H66.994v-8.978
	c0-5.533-4.487-10.021-10.021-10.021s-10.021,4.487-10.021,10.021v18.998c0,5.533,4.487,10.021,10.021,10.021h398.053
	c5.533,0,10.021-4.487,10.021-10.021V385.894C465.047,306.487,400.443,241.883,321.035,241.883z M355.551,40.831
	c6.168,3.05,10.415,8.362,12.622,15.788c1.157,3.897,0.893,8.562-0.789,13.866c-1.327,4.185,0.224,8.745,3.826,11.252
	c7.072,4.922,12.007,12.264,13.9,20.674c2.016,8.966,0.421,18.181-4.492,25.946c-4.913,7.766-12.557,13.153-21.524,15.17
	c-0.703,0.158-1.423,0.286-2.147,0.4v-42.972c0-23.68-8.199-45.479-21.902-62.715C341.577,37.289,349.106,37.643,355.551,40.831z
	 M255.995,20.042c44.615,0,80.912,36.297,80.912,80.912v15.681c-3.502-17.085-18.653-29.976-36.759-29.976h-16.62
	c-10.856,0-20.643,4.639-27.5,12.031c-6.857-7.393-16.646-12.031-27.5-12.031h-16.619c-18.236,0-33.467,13.079-36.825,30.348
	v-16.052C175.082,56.339,211.378,20.042,255.995,20.042z M266.048,124.18c0-9.638,7.841-17.479,17.479-17.479h16.62
	c9.638,0,17.479,7.841,17.479,17.479v3.621c0,9.638-7.841,17.479-17.479,17.479h-16.62c-9.638,0-17.479-7.841-17.479-17.479V124.18z
	 M246.006,127.8c0,9.638-7.841,17.479-17.479,17.479h-16.619c-9.638,0-17.479-7.841-17.479-17.479v-3.621
	c0-9.638,7.841-17.479,17.479-17.479h16.619c9.638,0,17.479,7.841,17.479,17.479V127.8z M131.437,128.356
	c-4.913-7.765-6.508-16.979-4.492-25.946c1.892-8.408,6.827-15.751,13.9-20.674c3.602-2.508,5.154-7.069,3.826-11.252
	c-1.681-5.304-1.946-9.969-0.789-13.866c2.208-7.425,6.453-12.737,12.622-15.788c6.425-3.177,13.928-3.537,20.445-2.599
	c-13.706,17.238-21.908,39.039-21.908,62.723v42.96c-0.7-0.112-1.399-0.234-2.08-0.388
	C143.994,141.51,136.35,136.122,131.437,128.356z M175.082,160.952v-25.979c3.358,17.269,18.59,30.348,36.825,30.348h16.619
	c10.856,0,20.643-4.639,27.5-12.031c6.857,7.393,16.646,12.031,27.5,12.031h16.62c18.106,0,33.257-12.891,36.759-29.976v25.607
	c0,44.616-36.297,80.913-80.913,80.913C211.378,241.865,175.082,205.568,175.082,160.952z M333.432,337.93l12.846,15.869
	l-74.106,138.159h-6.152v-76.808l73.191-151.889c15.023,2.217,29.176,7.14,41.949,14.255l-47.026,47.026
	C330.509,328.166,330.206,333.945,333.432,337.93z M256.032,389.709l-61.576-127.786h123.151L256.032,389.709z M165.786,353.799
	l12.846-15.869c3.227-3.986,2.923-9.764-0.702-13.391l-47.049-47.049c12.78-7.112,26.939-12.029,41.968-14.24l73.131,151.764v76.943
	h-6.087L165.786,353.799z M445.005,491.958h-40.653v-61.086c0-5.533-4.487-10.021-10.021-10.021s-10.021,4.487-10.021,10.021v61.086
	h-89.394l72.172-134.552c1.906-3.554,1.496-7.906-1.042-11.042l-11.36-14.032l43.446-43.445
	c28.543,22.732,46.873,57.767,46.873,97.008V491.958z"/>
<path d="M228.428,198.001c4.053,2.291,8.532,3.458,13.063,3.458c2.394,0,4.802-0.326,7.17-0.983
	c2.635-0.732,5.098-1.845,7.333-3.286c2.235,1.441,4.698,2.554,7.332,3.286c2.369,0.657,4.778,0.983,7.17,0.983
	c4.532,0,9.011-1.167,13.063-3.458c4.819-2.724,6.517-8.836,3.794-13.654c-2.724-4.819-8.838-6.515-13.654-3.794
	c-1.533,0.868-3.31,1.087-5.007,0.612c-1.697-0.471-3.108-1.574-3.974-3.108c-3.76-6.639-13.704-6.662-17.448,0.001
	c-0.866,1.532-2.277,2.636-3.973,3.107c-1.698,0.473-3.476,0.253-5.008-0.612c-4.818-2.724-10.931-1.024-13.654,3.794
	C221.911,189.164,223.61,195.278,228.428,198.001C232.481,200.291,223.61,195.278,228.428,198.001z"/>
<path d="M237.077,77.402h37.837c5.533,0,10.021-4.487,10.021-10.021s-4.487-10.021-10.021-10.021h-37.837
	c-5.533,0-10.021,4.487-10.021,10.021S231.543,77.402,237.077,77.402z"/>
<path d="M394.327,379.726c-2.635,0-5.221,1.072-7.085,2.936c-1.864,1.864-2.936,4.439-2.936,7.085c0,2.635,1.071,5.221,2.936,7.085
	c1.864,1.863,4.449,2.936,7.085,2.936c2.646,0,5.221-1.072,7.084-2.936c1.874-1.864,2.937-4.449,2.937-7.085
	s-1.063-5.221-2.937-7.085C399.548,380.799,396.971,379.726,394.327,379.726z"/>
<g>
</g>
<g>
</g>
<g>
</g>
<g>
</g>
<g>
</g>
<g>
</g>
<g>
</g>
<g>
</g>
<g>
</g>
<g>
</g>
<g>
</g>
<g>
</g>
<g>
</g>
<g>
</g>
<g>
</g>
</svg>
