<svg id="Capa_1" enable-background="new 0 0 512 512" height="512" viewBox="0 0 512 512" width="512" xmlns="http://www.w3.org/2000/svg"><g><path d="m502.842 168.054-54.658-129.406c-2.074-4.911-6.887-8.103-12.218-8.103h-359.932c-5.331 0-10.144 3.192-12.218 8.103l-54.658 129.406z" fill="#95d6a4"/><path d="m502.842 168.054-54.658-129.406c-2.074-4.911-6.887-8.103-12.218-8.103h-23.709l31.955 75.656c8.269 19.577-6.103 41.249-27.355 41.249h-398.997l-8.703 20.604 233.439 92.593z" fill="#78c2a4"/><path d="m127.481 194.167h-92.21l-13.056 10.072-13.057 30.215v40.287l13.057 29.064-13.057 11.223v40.287l13.057 30.215-13.057 10.072v29.877h118.323z" fill="#e28086"/><path d="m86.274 194.167v172.746c0 20.966-16.996 37.962-37.962 37.962h-39.154v20.604l136.776 26.329 14.335-257.641z" fill="#dd636e"/><path d="m61.385 275.019v-34.747c0-11.041 8.95-19.991 19.991-19.991 11.041 0 19.991 8.95 19.991 19.991v34.747c0 .994-.806 1.8-1.8 1.8h-36.382c-.994 0-1.8-.806-1.8-1.8z" fill="#bed8fb"/><path d="m86.274 220.885v55.934h13.294c.994 0 1.8-.806 1.8-1.8v-34.747c0-9.351-6.421-17.202-15.094-19.387z" fill="#9dc6fb"/><path d="m61.385 373.229v-34.747c0-11.041 8.95-19.991 19.991-19.991 11.041 0 19.991 8.95 19.991 19.991v34.747c0 .994-.806 1.8-1.8 1.8h-36.382c-.994 0-1.8-.805-1.8-1.8z" fill="#bed8fb"/><path d="m86.274 319.17v47.743c0 2.812-.306 5.553-.886 8.191h14.18c.994 0 1.8-.806 1.8-1.8v-34.747c0-9.352-6.421-17.203-15.094-19.387z" fill="#9dc6fb"/><path d="m61.385 338.482v13.849h39.983v-13.849c0-.54-.022-1.075-.064-1.604h-39.855c-.042.53-.064 1.065-.064 1.604z" fill="#9dc6fb"/><path d="m101.364 338.104c0-.012 0-.024-.001-.036-.003-.127-.006-.253-.011-.379 0-.006-.001-.013-.001-.019-.005-.131-.012-.261-.019-.391 0-.001 0-.003 0-.004-.008-.133-.017-.265-.028-.396h-15.03v15.453h15.094v-13.849c0-.127-.002-.253-.004-.379z" fill="#80b4fb"/><path d="m9.158 395.602h25.058c.583 0 1.056-.473 1.056-1.056v-38.176c0-.583-.473-1.056-1.056-1.056h-25.058z" fill="#f9f6f6"/><path d="m9.158 315.028h25.058c.583 0 1.056-.473 1.056-1.056v-38.175c0-.583-.473-1.056-1.056-1.056h-25.058z" fill="#f9f6f6"/><path d="m35.271 194.167h-26.113v40.287h25.058c.583 0 1.056-.473 1.056-1.056v-39.231z" fill="#f9f6f6"/><path d="m371.462 194.167h105.267l18.623 21.173 7.49 19.114v40.287l-4.892 26.573 4.892 13.714v40.287l-4.892 26.218 4.892 14.069v29.877h-118.323z" fill="#e28086"/><path d="m410.632 275.019v-34.747c0-11.041 8.95-19.991 19.991-19.991 11.041 0 19.991 8.95 19.991 19.991v34.747c0 .994-.806 1.8-1.8 1.8h-36.383c-.993 0-1.799-.806-1.799-1.8z" fill="#bed8fb"/><path d="m410.632 240.272v13.849h39.983v-13.849c0-.54-.022-1.075-.064-1.604h-39.855c-.042.529-.064 1.064-.064 1.604z" fill="#9dc6fb"/><path d="m461.635 194.167v172.746c0 20.966-16.996 37.962-37.962 37.962h-52.211l-8.09 51.966 139.47-31.363v-29.877l-10.302-19.615 10.302-20.672v-40.287l-10.302-20.143 10.302-20.143v-40.287l-10.413-26.576-15.7-13.711z" fill="#dd636e"/><path d="m502.842 395.602h-25.058c-.583 0-1.056-.473-1.056-1.056v-38.176c0-.583.473-1.056 1.056-1.056h25.058z" fill="#dad0cb"/><path d="m502.842 315.028h-25.058c-.583 0-1.056-.473-1.056-1.056v-38.175c0-.583.473-1.056 1.056-1.056h25.058z" fill="#dad0cb"/><path d="m476.729 194.167h26.113v40.287h-25.058c-.583 0-1.056-.473-1.056-1.056v-39.231z" fill="#efe7e4"/><path d="m476.729 194.167h26.113v40.287h-25.058c-.583 0-1.056-.473-1.056-1.056v-39.231z" fill="#dad0cb"/><path d="m61.385 240.272v13.849h39.983v-13.849c0-.54-.022-1.075-.064-1.604h-39.855c-.042.529-.064 1.064-.064 1.604z" fill="#9dc6fb"/><path d="m101.364 239.893c0-.012 0-.024-.001-.036-.003-.127-.006-.253-.011-.379 0-.006-.001-.013-.001-.019-.005-.131-.012-.261-.019-.391 0-.001 0-.003 0-.004-.008-.133-.017-.265-.028-.396h-15.03v15.453h15.094v-13.849c0-.127-.002-.253-.004-.379z" fill="#80b4fb"/><path d="m256 62.55-128.518 95.058h257.037z" fill="#e28086"/><path d="m254.843 30.926-141.362 104.558c-.844.624-1.022 1.814-.398 2.658l14.398 19.467 127.361-94.202c.688-.509 1.626-.509 2.314 0l127.361 94.202 14.398-19.467c.624-.844.446-2.034-.398-2.658l-141.36-104.558c-.687-.509-1.626-.509-2.314 0z" fill="#f9f6f6"/><path d="m127.481 157.608h257.037v26.114h-257.037z" fill="#f9f6f6"/><path d="m127.481 183.722h257.037v241.757h-257.037z" fill="#e28086"/><path d="m343.311 183.722v183.191c0 20.966-16.996 37.962-37.962 37.962h-177.868v20.604l257.037 34.174v-275.931z" fill="#dd636e"/><path d="m127.481 194.167h-125.343c-1.181 0-2.138-.957-2.138-2.137v-21.838c0-1.181.957-2.138 2.138-2.138h125.344v26.113z" fill="#efe7e4"/><path d="m127.481 425.479h26.114v-40.724c0-.72-.584-1.304-1.304-1.304h-24.81z" fill="#f9f6f6"/><path d="m127.481 404.875h26.113v20.604h-26.113z" fill="#efe7e4"/><path d="m127.481 341.423h24.81c.72 0 1.304-.584 1.304-1.304v-39.42c0-.72-.584-1.304-1.304-1.304h-24.81z" fill="#f9f6f6"/><path d="m127.481 215.34v42.028h24.81c.72 0 1.304-.584 1.304-1.304v-39.42c0-.72-.584-1.304-1.304-1.304z" fill="#f9f6f6"/><path d="m384.519 425.479h-26.114v-40.724c0-.72.584-1.304 1.304-1.304h24.81z" fill="#efe7e4"/><path d="m384.519 341.423h-24.81c-.72 0-1.304-.584-1.304-1.304v-39.42c0-.72.584-1.304 1.304-1.304h24.81z" fill="#efe7e4"/><path d="m384.519 215.34v42.028h-24.81c-.72 0-1.304-.584-1.304-1.304v-39.42c0-.72.584-1.304 1.304-1.304z" fill="#efe7e4"/><g fill="#bed8fb"><circle cx="256" cy="117.408" r="13.403"/><path d="m238.838 283.541h-50.685c-.626 0-1.133-.507-1.133-1.133v-44.656c0-14.622 11.853-26.475 26.475-26.475 11.934 0 22.024 7.896 25.33 18.749.745 2.444 1.145 5.039 1.145 7.726v7.727 36.929c0 .626-.507 1.133-1.132 1.133z"/><path d="m323.847 283.541h-50.685c-.626 0-1.133-.507-1.133-1.133v-44.656c0-14.622 11.853-26.475 26.475-26.475 14.622 0 26.475 11.853 26.475 26.475v44.656c.001.626-.506 1.133-1.132 1.133z"/></g><path d="m384.519 194.167h125.344c1.181 0 2.138-.957 2.138-2.138v-21.838c0-1.181-.957-2.138-2.138-2.138h-125.344z" fill="#efe7e4"/><path d="m288.99 425.479h-65.979v-78.832c0-.604.49-1.094 1.094-1.094h63.791c.604 0 1.094.49 1.094 1.094z" fill="#f9f6f6"/><path d="m223.011 404.875h65.979v20.604h-65.979z" fill="#efe7e4"/><path d="m288.99 345.552h-65.979v-19.13c0-3.202 2.596-5.798 5.798-5.798h54.383c3.202 0 5.798 2.596 5.798 5.798z" fill="#bed8fb"/><path d="m273.175 230.027c-.745 2.444-1.146 5.038-1.146 7.726v7.727h18.749v38.062h15.453v-38.062h18.749v-7.727c0-2.688-.401-5.282-1.146-7.726z" fill="#9dc6fb"/><path d="m188.166 230.027c-.745 2.444-1.146 5.038-1.146 7.726v7.727h18.749v38.062h15.453v-38.062h18.748v-7.727c0-2.688-.401-5.282-1.146-7.726z" fill="#9dc6fb"/><path d="m248.274 345.553h15.453v79.926h-15.453z" fill="#efe7e4"/><path d="m248.274 404.875h15.453v20.604h-15.453z" fill="#dad0cb"/><path d="m508.597 481.456h-505.194c-1.88 0-3.403-1.524-3.403-3.404v-49.17c0-1.88 1.524-3.403 3.403-3.403h505.193c1.88 0 3.403 1.524 3.403 3.403v49.17c.001 1.88-1.523 3.404-3.402 3.404z" fill="#dad0cb"/><path d="m321.676 453.467h-131.352v-26.053c0-1.069.866-1.935 1.935-1.935h127.482c1.069 0 1.935.866 1.935 1.935z" fill="#f9f6f6"/><path d="m351.731 481.456h-191.462v-26.053c0-1.069.866-1.935 1.935-1.935h187.593c1.069 0 1.935.866 1.935 1.935v26.053z" fill="#efe7e4"/><path d="m410.632 373.304v-34.747c0-11.041 8.95-19.991 19.991-19.991 11.041 0 19.991 8.95 19.991 19.991v34.747c0 .994-.806 1.8-1.8 1.8h-36.383c-.993 0-1.799-.806-1.799-1.8z" fill="#bed8fb"/><path d="m410.632 338.557v13.849h39.983v-13.849c0-.54-.022-1.075-.064-1.604h-39.855c-.042.529-.064 1.064-.064 1.604z" fill="#9dc6fb"/></g></svg>