<svg id="Layer_1" height="512" viewBox="0 0 91 91" width="512" xmlns="http://www.w3.org/2000/svg" data-name="Layer 1"><path d="m58.25 63.49h6.75v-12.29h-6.75a25.17 25.17 0 0 0 -2.8-6.78l4.76-4.76-8.69-8.66-4.76 4.76a25 25 0 0 0 -6.76-2.83v-6.74h-12.31v6.74a25.06 25.06 0 0 0 -6.77 2.8l-4.78-4.73-8.69 8.66 4.77 4.76a25.34 25.34 0 0 0 -2.81 6.78h-6.74v12.29h6.74a25 25 0 0 0 2.81 6.78l-4.77 4.73 8.69 8.69 4.76-4.69a25.18 25.18 0 0 0 6.79 2.8v6.75h12.31v-6.79a25.12 25.12 0 0 0 6.76-2.76l4.76 4.76 8.69-8.76-4.76-4.76a25 25 0 0 0 2.8-6.75zm-24.42 11.37a17.52 17.52 0 1 1 17.52-17.51 17.52 17.52 0 0 1 -17.52 17.51z" fill="#afdcc9"/><path d="m84 17.88a10.71 10.71 0 0 0 -.14-1.61l3.92-2.27-4-7-3.9 2.3a10.58 10.58 0 0 0 -2.79-1.61v-4.48h-8v4.48a10.39 10.39 0 0 0 -2.69 1.54l-3.9-2.29-4.09 6.92 3.85 2.28a11.14 11.14 0 0 0 -.15 1.74 10.71 10.71 0 0 0 .13 1.61l-3.88 2.24 4 7 3.88-2.24a10.91 10.91 0 0 0 2.79 1.61v4.47h8v-4.5a10.51 10.51 0 0 0 2.69-1.54l3.86 2.29 4.1-6.92-3.86-2.29a9.85 9.85 0 0 0 .18-1.73zm-11 4.89a4.89 4.89 0 1 1 5-4.89 4.89 4.89 0 0 1 -4.93 4.89z" fill="#d6e0e7"/><path d="m51.35 57.35a17.52 17.52 0 1 1 -17.52-17.52 17.52 17.52 0 0 1 17.52 17.52z" fill="#fcefbb"/><g fill="#4e7a9e"><path d="m73.07 24.52a1.75 1.75 0 0 1 0-3.5 3.14 3.14 0 1 0 -3.14-3.14 1.75 1.75 0 0 1 -3.5 0 6.64 6.64 0 1 1 6.64 6.64z"/><path d="m77.09 34.29h-8a1.75 1.75 0 0 1 -1.75-1.75v-3.34a13 13 0 0 1 -1.14-.66l-2.9 1.67a1.74 1.74 0 0 1 -2.39-.64l-4-7a1.77 1.77 0 0 1 -.17-1.33 1.73 1.73 0 0 1 .81-1.06l2.9-1.67c0-.23 0-.45 0-.67s0-.53 0-.81l-2.88-1.7a1.8 1.8 0 0 1 -.8-1.07 1.77 1.77 0 0 1 .13-1.26l4.1-6.95a1.73 1.73 0 0 1 2.39-.61l2.89 1.7c.33-.21.67-.4 1-.58v-3.35a1.75 1.75 0 0 1 1.75-1.75h8a1.75 1.75 0 0 1 1.75 1.75v3.35a13.13 13.13 0 0 1 1.22.66l2.9-1.67a1.74 1.74 0 0 1 2.39.64l4 7a1.77 1.77 0 0 1 -.64 2.4l-2.9 1.66v.67s0 .54 0 .81l2.87 1.7a1.75 1.75 0 0 1 .61 2.4l-4.1 6.92a1.73 1.73 0 0 1 -2.39.61l-2.89-1.71c-.33.21-.67.41-1 .59v3.34a1.75 1.75 0 0 1 -1.76 1.71zm-6.29-3.5h4.54v-2.72a1.76 1.76 0 0 1 1.11-1.63 9.19 9.19 0 0 0 2.25-1.28 1.73 1.73 0 0 1 2-.13l2.3 1.39 2.32-3.91-2.32-1.39a1.76 1.76 0 0 1 -.83-1.8 9.27 9.27 0 0 0 .13-1.44 9.06 9.06 0 0 0 -.12-1.36 1.76 1.76 0 0 1 .82-1.77l2.36-1.36-2.24-3.94-2.36 1.37a1.75 1.75 0 0 1 -2-.15 8.92 8.92 0 0 0 -2.34-1.35 1.76 1.76 0 0 1 -1.11-1.63v-2.69h-4.51v2.69a1.76 1.76 0 0 1 -1.11 1.63 8.92 8.92 0 0 0 -2.26 1.29 1.73 1.73 0 0 1 -2 .12l-2.31-1.39-2.32 3.91 2.35 1.39a1.75 1.75 0 0 1 .85 1.77 9.55 9.55 0 0 0 -.13 1.47 8.71 8.71 0 0 0 .13 1.35 1.75 1.75 0 0 1 -.88 1.77l-2.37 1.36 2.25 3.95 2.36-1.37a1.76 1.76 0 0 1 2 .15 9.19 9.19 0 0 0 2.35 1.35 1.76 1.76 0 0 1 1.11 1.63z"/><path d="m40 90.26h-12.32a1.76 1.76 0 0 1 -1.75-1.75v-5.42a27.39 27.39 0 0 1 -4.73-2l-3.82 3.91a1.76 1.76 0 0 1 -2.48 0l-8.68-8.73a1.73 1.73 0 0 1 0-2.47l3.78-3.8a26.36 26.36 0 0 1 -2-4.73h-5.33a1.75 1.75 0 0 1 -1.75-1.78v-12.29a1.75 1.75 0 0 1 1.75-1.75h5.41a27.24 27.24 0 0 1 2-4.73l-3.86-3.83a1.73 1.73 0 0 1 0-2.47l8.68-8.69a1.8 1.8 0 0 1 2.48 0l3.82 3.82a27.07 27.07 0 0 1 4.73-1.95v-5.42a1.75 1.75 0 0 1 1.75-1.74h12.32a1.75 1.75 0 0 1 1.75 1.75v5.41a26.85 26.85 0 0 1 4.74 1.95l3.82-3.82a1.8 1.8 0 0 1 2.48 0l8.68 8.69a1.75 1.75 0 0 1 .53 1.24 1.73 1.73 0 0 1 -.52 1.23l-3.82 3.83a26.79 26.79 0 0 1 2 4.73h5.34a1.75 1.75 0 0 1 1.75 1.75v12.29a1.76 1.76 0 0 1 -.51 1.24 1.78 1.78 0 0 1 -1.24.51h-5.42a27.57 27.57 0 0 1 -2 4.73l3.83 3.83a1.72 1.72 0 0 1 .59 1.2 1.74 1.74 0 0 1 -.51 1.24l-8.73 8.76a1.76 1.76 0 0 1 -2.48 0l-3.82-3.82a26.75 26.75 0 0 1 -4.73 2v5.42a1.76 1.76 0 0 1 -1.73 1.66zm-10.55-3.5h8.8v-5a1.75 1.75 0 0 1 1.32-1.7 23.41 23.41 0 0 0 6.31-2.6 1.75 1.75 0 0 1 2.13.26l3.53 3.53 6.19-6.25-3.52-3.52a1.76 1.76 0 0 1 -.27-2.14 23.3 23.3 0 0 0 2.61-6.31 1.75 1.75 0 0 1 1.7-1.32h5v-8.71h-5a1.75 1.75 0 0 1 -1.7-1.32 23 23 0 0 0 -2.61-6.31 1.76 1.76 0 0 1 .27-2.14l3.52-3.52-6.21-6.22-3.52 3.51a1.74 1.74 0 0 1 -2.13.26 23.22 23.22 0 0 0 -6.31-2.6 1.76 1.76 0 0 1 -1.33-1.7v-5h-8.8v5a1.75 1.75 0 0 1 -1.32 1.7 23.22 23.22 0 0 0 -6.31 2.6 1.75 1.75 0 0 1 -2.13-.26l-3.53-3.53-6.21 6.19 3.52 3.52a1.76 1.76 0 0 1 .27 2.14 23.3 23.3 0 0 0 -2.61 6.31 1.76 1.76 0 0 1 -1.7 1.37h-5v8.79h5a1.75 1.75 0 0 1 1.7 1.33 23.13 23.13 0 0 0 2.61 6.3 1.76 1.76 0 0 1 -.27 2.14l-3.52 3.44 6.21 6.22 3.53-3.53a1.75 1.75 0 0 1 2.13-.26 23.35 23.35 0 0 0 6.31 2.6 1.75 1.75 0 0 1 1.32 1.7z"/><path d="m33.83 76.61a19.27 19.27 0 1 1 0-38.53 1.75 1.75 0 0 1 0 3.5 15.76 15.76 0 1 0 10.07 3.63 1.75 1.75 0 0 1 2.24-2.69 19.63 19.63 0 0 1 3.08 3.23 19.08 19.08 0 0 1 3.88 11.6 19.28 19.28 0 0 1 -19.27 19.26z"/><path d="m34 70.21a1.75 1.75 0 0 1 -1.75-1.75v-22.23a1.75 1.75 0 1 1 3.5 0v22.23a1.75 1.75 0 0 1 -1.75 1.75z"/><path d="m35.75 67.59h-4.05c-3.74 0-6.78-2.68-6.78-6a1.75 1.75 0 1 1 3.5 0c0 1.34 1.5 2.47 3.28 2.47h4.05c1.77.03 3.25-1.06 3.25-2.44v-.22a1.83 1.83 0 0 0 -1.59-1.63l-8.27-1.7a5.38 5.38 0 0 1 -4.24-5v-.22c0-3.28 3-6 6.78-6h4.05c3.73 0 6.78 2.67 6.78 6a1.75 1.75 0 0 1 -3.5 0c0-1.33-1.51-2.45-3.28-2.45h-4.03c-1.78 0-3.28 1.12-3.28 2.45v.23a1.91 1.91 0 0 0 1.47 1.55l8.31 1.72a5.28 5.28 0 0 1 4.32 5v.21c0 3.35-3.04 6.03-6.77 6.03z"/><path d="m68.24 74.06a1.8 1.8 0 0 1 -1-.29 1.75 1.75 0 0 1 -.49-2.43c1.3-2 2.6-4 3.86-6.13a171.08 171.08 0 0 0 14.57-30.82 1.75 1.75 0 0 1 3.33 1.09 176.32 176.32 0 0 1 -14.87 31.52c-1.28 2.14-2.61 4.25-3.94 6.26a1.76 1.76 0 0 1 -1.46.8z"/><path d="m20.49 25.14a1.75 1.75 0 0 1 -1-3.15c10.8-8.06 33.4-18.37 34.35-18.8a1.75 1.75 0 1 1 1.45 3.19c-.29.1-23.29 10.62-33.75 18.41a1.72 1.72 0 0 1 -1.05.35z"/></g></svg>