<svg id="Capa_1" enable-background="new 0 0 512 512" height="512" viewBox="0 0 512 512" width="512" xmlns="http://www.w3.org/2000/svg"><g><path d="m419.885 47.8-27.099-27.119c-8.138-8.144-19.38-13.181-31.798-13.181l21.299 89.994h17.029c25.916 0 38.894-31.355 20.569-49.694z" fill="#57697d"/><path d="m393.718 47.8-15.059-27.119c-4.523-8.144-10.77-13.181-17.671-13.181-12.417 0-23.659 5.037-31.797 13.18l-27.1 27.12c-18.325 18.338-5.346 49.694 20.569 49.694h59.628c14.401 0 21.613-31.355 11.43-49.694z" fill="#728192"/><path d="m211.013 127.5h-30v150h60v-120c0-16.5-13.5-30-30-30z" fill="#1c77db"/><path d="m91.012 127.5c-16.5 0-30 13.5-30 30v120h60v-150z" fill="#54a5ff"/><path d="m181.013 127.5s-29.672 80.291-29.672 80.291l-30.329-80.291c-16.5 0-30 13.5-30 30v105h120l.001-105c0-16.5-13.5-30-30-30z" fill="#1e8aff"/><path d="m121.012 127.5h60v135h-60z" fill="#fff"/><path d="m151.012 7.5v90c24.853 0 45-20.147 45-45s-20.147-45-45-45z" fill="#1c77db"/><path d="m166.012 52.5c0-24.853-6.716-45-15-45-24.853 0-45 20.147-45 45s20.147 45 45 45c8.284 0 15-20.147 15-45z" fill="#1e8aff"/><path d="m421.013 127.5h-30v150h60v-120c0-16.5-13.5-30-30-30z" fill="#57697d"/><path d="m301.012 127.5c-16.5 0-30 13.5-30 30v120h60v-150z" fill="#8c98a7"/><path d="m391.013 127.5s-29.672 80.291-29.672 80.291l-30.329-80.291c-16.5 0-30 13.5-30 30v105h120l.001-105c0-16.5-13.5-30-30-30z" fill="#728192"/><path d="m331.012 127.5h60v135h-60z" fill="#fff"/><path d="m286.006 277.5h188.5v214h-188.5z" fill="#ff4e51"/><path d="m37.5 307.5.013 184h407v-45l-188.513-54.542 188.513-54.458-.013-60h-407z" fill="#ff7149"/><path d="m474.513 474.5h-30v30h30c8.284 0 15-6.716 15-15s-6.716-15-15-15z" fill="#ff2b59"/><path d="m459.513 489.5c0-8.284-6.716-15-15-15h-407c-8.284 0-15 6.716-15 15s6.716 15 15 15h407c8.284 0 15-6.716 15-15z" fill="#ff4e51"/><path d="m444.513 446.5h-30l-158.507-53.542 158.507-55.458h29.987z" fill="#ffb739"/><path d="m67.519 337.5h346.987v109h-346.987z" fill="#ffd17e"/><path d="m474.5 232.5-30 37.5 30 37.5h30v-75z" fill="#ff7149"/><path d="m7.5 232.5h467v75h-467z" fill="#ff9441"/><path d="m322.67 104.994h76.685c15.081 0 28.037-8.657 33.811-22.593 5.776-13.941 2.737-29.231-7.93-39.903l-27.108-27.119c-9.914-9.917-23.095-15.379-37.115-15.379s-27.2 5.461-37.113 15.378l-27.11 27.12c-10.667 10.671-13.706 25.961-7.93 39.903 5.773 13.936 18.729 22.593 33.81 22.593zm-15.272-51.891 27.11-27.12c7.08-7.083 16.493-10.983 26.505-10.983 10.013 0 19.426 3.9 26.505 10.983l27.108 27.119c7.528 7.53 7.354 17.106 4.682 23.557-2.671 6.447-9.315 13.335-19.953 13.335h-76.685c-10.638 0-17.282-6.888-19.953-13.335-2.673-6.451-2.847-16.026 4.681-23.556z"/><path d="m151.012 105c28.949 0 52.5-23.551 52.5-52.5s-23.551-52.5-52.5-52.5-52.5 23.551-52.5 52.5 23.551 52.5 52.5 52.5zm0-90c20.678 0 37.5 16.822 37.5 37.5s-16.822 37.5-37.5 37.5-37.5-16.822-37.5-37.5 16.822-37.5 37.5-37.5z"/><path d="m504.5 225h-45.987v-67.5c0-20.678-16.822-37.5-37.5-37.5h-120c-20.678 0-37.5 16.822-37.5 37.5v67.5h-15v-67.5c0-20.678-16.822-37.5-37.5-37.5h-120c-20.678 0-37.5 16.822-37.5 37.5v67.5h-46.013c-4.142 0-7.5 3.358-7.5 7.5v75c0 4.142 3.358 7.5 7.5 7.5h22.501l.012 153.285c-8.73 3.096-15 11.437-15 21.215 0 12.407 10.093 22.5 22.5 22.5h437c12.406 0 22.5-10.093 22.5-22.5 0-9.778-6.271-18.114-15-21.21l-.013-153.29h22.5c4.143 0 7.5-3.358 7.5-7.5v-75c0-4.142-3.357-7.5-7.5-7.5zm-60.987-67.5v67.5h-15v-67.5c0-4.142-3.357-7.5-7.5-7.5s-7.5 3.358-7.5 7.5v67.5h-15v-90h22.5c12.406 0 22.5 10.093 22.5 22.5zm-82.5 52.5c4.143 0 7.5-3.358 7.5-7.5v-67.5h15v90h-45v-90h15v67.5c0 4.142 3.357 7.5 7.5 7.5zm-82.5-52.5c0-12.407 10.094-22.5 22.5-22.5h22.5v90h-15v-67.5c0-4.142-3.357-7.5-7.5-7.5s-7.5 3.358-7.5 7.5v67.5h-15zm-45 0v67.5h-15v-67.5c0-4.142-3.358-7.5-7.5-7.5s-7.5 3.358-7.5 7.5v67.5h-15v-90h22.5c12.406 0 22.5 10.093 22.5 22.5zm-82.501 52.5c4.142 0 7.5-3.358 7.5-7.5v-67.5h15v90h-45v-90h15v67.5c0 4.142 3.358 7.5 7.5 7.5zm-82.5-52.5c0-12.407 10.093-22.5 22.5-22.5h22.5v90h-15v-67.5c0-4.142-3.358-7.5-7.5-7.5s-7.5 3.358-7.5 7.5v67.5h-15zm398.5 309.5h-399.5c-4.142 0-7.5 3.358-7.5 7.5s3.358 7.5 7.5 7.5h407c4.136 0 7.5 3.364 7.5 7.5s-3.364 7.5-7.5 7.5h-437c-4.136 0-7.5-3.364-7.5-7.5s3.364-7.5 7.5-7.5c1.989 0 3.897-.79 5.304-2.197 1.406-1.407 2.196-3.314 2.196-5.304l-.011-159.499h422zm29.988-167h-482v-60h482z"/><path d="m67.525 454h376.988c1.989 0 3.897-.79 5.304-2.197s2.196-3.315 2.196-5.304l-.013-109c-.001-4.142-3.358-7.499-7.5-7.499h-376.987c-1.989 0-3.897.79-5.304 2.197-1.406 1.407-2.196 3.315-2.196 5.304l.012 109c0 4.142 3.358 7.499 7.5 7.499zm369.476-109 .011 94h-361.988l-.01-94z"/></g></svg>