<?xml version="1.0" encoding="iso-8859-1"?>
<!-- Generator: Adobe Illustrator 19.0.0, SVG Export Plug-In . SVG Version: 6.00 Build 0)  -->
<svg version="1.1" id="Capa_1" xmlns="http://www.w3.org/2000/svg" xmlns:xlink="http://www.w3.org/1999/xlink" x="0px" y="0px"
	 viewBox="0 0 512 512" style="enable-background:new 0 0 512 512;" xml:space="preserve">
<path style="fill:#FF5D5D;" d="M320.899,252.443h-129.8c-73.848,0-133.713,59.866-133.713,133.713V502h397.227V386.157
	C454.613,312.309,394.747,252.443,320.899,252.443z"/>
<polygon style="fill:#FFFFFF;" points="181.882,255.013 258.011,384.042 334.14,255.013 "/>
<path style="fill:#FEDA9B;" d="M300.67,123.654h42.736v41.382c0,48.273-39.133,87.407-87.407,87.407l0,0
	c-48.274,0-87.407-39.134-87.407-87.407v-41.382"/>
<g>
	<path style="fill:#C9F3FF;" d="M313.32,195.667h-27.207c-16.616,0-30.086-13.47-30.086-30.086v-12.959
		c0-16.616,13.47-30.086,30.086-30.086h27.207c16.616,0,30.086,13.47,30.086,30.086v12.959
		C343.406,182.197,329.936,195.667,313.32,195.667z"/>
	<path style="fill:#C9F3FF;" d="M225.941,195.667h-27.207c-16.616,0-30.086-13.47-30.086-30.086v-12.959
		c0-16.616,13.47-30.086,30.086-30.086h27.207c16.616,0,30.086,13.47,30.086,30.086v12.959
		C256.027,182.197,242.557,195.667,225.941,195.667z"/>
</g>
<path style="fill:#FFC66C;" d="M240.465,10h116.942v58.034c0,30.101-24.401,54.502-54.502,54.502H168.592V81.873
	C168.592,42.178,200.77,10,240.465,10z"/>
<path style="fill:#5A54E0;" d="M255.999,502L255.999,502V386.878l0,0c7.465-14.386,22.322-23.415,38.529-23.415h105.471V502"/>
<path style="fill:#6A80FF;" d="M255.999,502L255.999,502V386.878l0,0c-7.465-14.386-22.322-23.415-38.529-23.415H111.999V502"/>
<path d="M222.419,333.72c2.63,0,5.2-1.07,7.07-2.93c1.859-1.86,2.93-4.44,2.93-7.07c0-2.64-1.07-5.21-2.93-7.07
	c-1.86-1.869-4.44-2.93-7.07-2.93c-2.64,0-5.21,1.061-7.07,2.93c-1.859,1.851-2.93,4.431-2.93,7.07c0,2.63,1.07,5.21,2.93,7.07
	C217.21,332.649,219.789,333.72,222.419,333.72z"/>
<path d="M222.419,160c-2.63,0-5.21,1.069-7.07,2.93c-1.87,1.86-2.93,4.44-2.93,7.07s1.06,5.21,2.93,7.069
	c1.86,1.86,4.44,2.931,7.07,2.931s5.21-1.07,7.07-2.931c1.859-1.859,2.93-4.439,2.93-7.069c0-2.641-1.07-5.21-2.93-7.07
	C227.619,161.069,225.049,160,222.419,160z"/>
<path d="M289.579,160c-2.63,0-5.21,1.069-7.07,2.93s-2.93,4.44-2.93,7.07s1.069,5.21,2.93,7.069c1.86,1.86,4.44,2.931,7.07,2.931
	s5.21-1.07,7.069-2.931c1.86-1.859,2.931-4.439,2.931-7.069s-1.07-5.21-2.931-7.07C294.789,161.069,292.209,160,289.579,160z"/>
<path d="M320.899,242.443h-5.844c23.025-17.609,37.994-45.237,38.337-76.317c0.002-0.182,0.014-0.363,0.014-0.546v-0.545v-12.414
	v-44.533c8.752-11.012,14-24.928,14-40.056V10c0-5.522-4.478-10-10-10H240.465c-45.145,0-81.873,36.728-81.873,81.872v83.164
	c0,31.524,15.056,59.593,38.351,77.407h-5.844c-79.243,0-143.713,64.47-143.713,143.713V502c0,5.522,4.478,10,10,10h397.227
	c5.522,0,10-4.478,10-10V386.156C464.612,306.913,400.143,242.443,320.899,242.443z M313.32,185.667h-27.208
	c-11.075,0-20.086-9.011-20.086-20.086v-12.959c0-11.075,9.011-20.086,20.086-20.086h16.792h10.416
	c11.075,0,20.086,9.011,20.086,20.086v12.414c0,0.366-0.023,0.727-0.028,1.092C333.085,176.949,324.211,185.667,313.32,185.667z
	 M246.026,165.581c0,11.075-9.011,20.086-20.086,20.086h-27.207c-11.075,0-20.086-9.011-20.086-20.086v-12.959
	c0-11.075,9.011-20.086,20.086-20.086h27.207c11.075,0,20.086,9.011,20.086,20.086V165.581z M178.592,81.872
	c0-34.116,27.756-61.872,61.873-61.872h106.941v48.033c0,24.539-19.964,44.503-44.502,44.503H178.592v-6.058V81.872z
	 M189.49,204.579c2.97,0.704,6.063,1.088,9.245,1.088h27.207c11.976,0,22.734-5.286,30.086-13.639
	c7.352,8.353,18.11,13.639,30.086,13.639h27.208c3.159,0,6.23-0.379,9.18-1.073c-13.521,22.645-38.265,37.85-66.502,37.85
	C227.757,242.443,203.008,227.232,189.49,204.579z M67.386,386.156c0-62.848,47.107-114.898,107.866-122.701l18.283,30.988
	c1.865,3.161,5.198,4.92,8.622,4.92c1.727,0,3.477-0.448,5.072-1.39c4.756-2.807,6.337-8.938,3.53-13.694l-12.883-21.835h120.268
	l-62.915,106.633c-9.85-9.868-23.322-15.612-37.761-15.612H111.999c-5.522,0-10,4.478-10,10V492H67.386V386.156z M360.999,424.667
	c5.522,0,10-4.478,10-10v-41.203h19V492h-124V389.486c6.043-9.939,16.774-16.022,28.529-16.022h56.471v41.203
	C350.999,420.189,355.477,424.667,360.999,424.667z M245.999,492h-124V373.464h95.471c11.755,0,22.486,6.083,28.529,16.022V492z
	 M444.612,492h-34.613V363.464c0-5.522-4.478-10-10-10H294.528c-2.414,0-4.8,0.164-7.147,0.478l53.07-89.948
	c58.958,9.401,104.161,60.599,104.161,122.162V492z"/>
<path d="M353.929,456.31c1.86,1.87,4.44,2.931,7.07,2.931s5.21-1.061,7.069-2.931c1.86-1.859,2.931-4.43,2.931-7.06
	c0-2.641-1.07-5.22-2.931-7.08c-1.859-1.86-4.439-2.93-7.069-2.93s-5.21,1.069-7.07,2.93s-2.93,4.439-2.93,7.08
	C350.999,451.88,352.068,454.45,353.929,456.31z"/>
<g>
</g>
<g>
</g>
<g>
</g>
<g>
</g>
<g>
</g>
<g>
</g>
<g>
</g>
<g>
</g>
<g>
</g>
<g>
</g>
<g>
</g>
<g>
</g>
<g>
</g>
<g>
</g>
<g>
</g>
</svg>
