<svg id="Layer_1" height="512" viewBox="0 0 91 91" width="512" xmlns="http://www.w3.org/2000/svg" data-name="Layer 1"><path d="m3.37 20.74h84.91v43.95h-84.91z" fill="#d6e0e7"/><path d="m36.27 77.36h19.11v10.04h-19.11z" fill="#def1f7"/><path d="m55.88 87.9h-20.11v-11h20.11zm-19.11-1h18.11v-9h-18.11z" fill="#4e7a9e"/><path d="m14.4 36.58h17.95v19.2h-17.95z" fill="#f0adab"/><path d="m42.96 41.59h35.07v5.01h-35.07z" fill="#fcefbb"/><path d="m55.39 23.38a10.74 10.74 0 0 0 .67-1.47l4.48-.05-.09-8h-4.47a11.16 11.16 0 0 0 -1.65-2.77l2.2-3.91-7-3.94-2.2 3.9a11 11 0 0 0 -3.09 0l-2.24-3.85-7 4 2.24 3.88a12.15 12.15 0 0 0 -1 1.44 9.66 9.66 0 0 0 -.67 1.47l-4.49.05.09 8 4.48-.05a10.5 10.5 0 0 0 1.64 2.77l-2.2 3.9 7 3.95 2.2-3.9a10.66 10.66 0 0 0 3.09 0l2.25 3.88 7-4-2.23-3.86a9.66 9.66 0 0 0 .99-1.44zm-12-1.11a4.89 4.89 0 1 1 6.66-1.87 4.9 4.9 0 0 1 -6.62 1.87z" fill="#fae386"/><g fill="#4e7a9e"><path d="m80.43 78.51h-77.06a1.75 1.75 0 0 1 -1.75-1.75v-56a1.76 1.76 0 0 1 1.75-1.76h20.23a1.75 1.75 0 0 1 0 3.5h-18.48v52.5h75.31a6.11 6.11 0 0 0 6.1-6.1v-46.41h-19.53a1.75 1.75 0 0 1 0-3.49h21.28a1.75 1.75 0 0 1 1.72 1.74v48.17a9.62 9.62 0 0 1 -9.57 9.6z"/><path d="m56.22 90.22h-20.78a1.75 1.75 0 0 1 -1.75-1.75v-11.71a1.75 1.75 0 0 1 1.75-1.76h20.78a1.75 1.75 0 0 1 1.78 1.76v11.71a1.75 1.75 0 0 1 -1.78 1.75zm-19-3.5h17.25v-8.21h-17.28z"/><path d="m68.46 90.22h-45.26a1.75 1.75 0 0 1 0-3.5h45.26a1.75 1.75 0 1 1 0 3.5z"/><path d="m45.83 24.64a6.64 6.64 0 1 1 0-13.27 1.75 1.75 0 0 1 0 3.5 3.14 3.14 0 1 0 3.17 3.13 1.75 1.75 0 0 1 3.5 0 6.64 6.64 0 0 1 -6.67 6.64z"/><path d="m42 34.47a1.71 1.71 0 0 1 -.88-.24l-7-4a1.74 1.74 0 0 1 -.64-2.39l1.67-2.9a11.82 11.82 0 0 1 -.66-1.15h-3.33a1.75 1.75 0 0 1 -1.75-1.79v-8a1.75 1.75 0 0 1 1.75-1.75h3.35c.18-.35.37-.69.58-1l-1.7-2.88a1.76 1.76 0 0 1 .61-2.44l6.92-4.1a1.76 1.76 0 0 1 2.4.62l1.68 2.87a10.31 10.31 0 0 1 1.47 0l1.67-2.89a1.8 1.8 0 0 1 1.07-.82 1.77 1.77 0 0 1 1.33.18l7 4a1.71 1.71 0 0 1 .82 1.06 1.76 1.76 0 0 1 -.18 1.33l-1.67 2.9a13 13 0 0 1 .66 1.14h3.34a1.75 1.75 0 0 1 1.73 1.78v8a1.75 1.75 0 0 1 -1.75 1.75h-3.34a11.48 11.48 0 0 1 -.59 1l1.71 2.88a1.76 1.76 0 0 1 -.61 2.4l-6.92 4.1a1.82 1.82 0 0 1 -1.33.19 1.78 1.78 0 0 1 -1.07-.81l-1.7-2.87a12.18 12.18 0 0 1 -1.48 0l-1.67 2.89a1.74 1.74 0 0 1 -1.51.88zm-4.6-6.42 3.94 2.27 1.36-2.32a1.75 1.75 0 0 1 1.78-.86 7.68 7.68 0 0 0 2.79 0 1.75 1.75 0 0 1 1.8.83l1.39 2.35 3.91-2.32-1.37-2.4a1.74 1.74 0 0 1 .14-2 9 9 0 0 0 1.28-2.25 1.75 1.75 0 0 1 1.58-1.08h2.72v-4.54h-2.72a1.75 1.75 0 0 1 -1.63-1.11 9.3 9.3 0 0 0 -1.37-2.34 1.74 1.74 0 0 1 -.15-2l1.41-2.28-3.94-2.32-1.32 2.37a1.77 1.77 0 0 1 -1.78.86 8.1 8.1 0 0 0 -2.82 0 1.71 1.71 0 0 1 -1.77-.84l-1.43-2.33-3.91 2.31 1.39 2.35a1.75 1.75 0 0 1 -.12 2 8.87 8.87 0 0 0 -1.29 2.25 1.76 1.76 0 0 1 -1.63 1.11h-2.73v4.54h2.73a1.76 1.76 0 0 1 1.63 1.11 9.15 9.15 0 0 0 1.35 2.35 1.75 1.75 0 0 1 .14 2z"/><path d="m33.18 58.37h-19.62a1.75 1.75 0 0 1 -1.75-1.75v-20.87a1.75 1.75 0 0 1 1.75-1.75h19.62a1.75 1.75 0 0 1 1.75 1.75v20.87a1.75 1.75 0 0 1 -1.75 1.75zm-17.87-3.5h16.12v-17.37h-16.12z"/><path d="m78.69 49.19h-36.69a1.75 1.75 0 0 1 -1.75-1.75v-6.68a1.75 1.75 0 0 1 1.75-1.76h36.69a1.75 1.75 0 0 1 1.75 1.75v6.68a1.75 1.75 0 0 1 -1.75 1.76zm-35-3.5h33.25v-3.18h-33.24z"/><path d="m64.08 55.38h-22.08a1.75 1.75 0 0 1 0-3.5h22.08a1.75 1.75 0 0 1 0 3.5z"/><path d="m78.69 66.44h-75.32a1.75 1.75 0 0 1 0-3.5h75.32a1.75 1.75 0 0 1 0 3.5z"/><circle cx="45.81" cy="70.45" r="1.73"/></g></svg>