<svg id="Capa_1" enable-background="new 0 0 512 512" height="512" viewBox="0 0 512 512" width="512" xmlns="http://www.w3.org/2000/svg"><g><path d="m495.147 209.414c-3.568 5.147-13.609-10.022-19.433-7.527-3.826 1.639-2.952 21.855-7.355 21.952 8.537 19.118 13.284 40.3 13.284 62.59 0 44.384-18.819 84.371-48.911 112.421 4.813 2.038-3.186 17.056 0 21.11 3.318 4.222 17.735-2.45 18.466 3.137 16.756-15.14 30.76-33.38 40.951-53.45 25.527-50.269 26.336-109.574 2.998-160.233z" fill="#f9f6f6"/><path d="m420.774 396.434-12.134 30.685 12.134 30.685c16.947 0 30.685-13.738 30.685-30.685s-13.738-30.685-30.685-30.685z" fill="#665e66"/><circle cx="467.602" cy="190.356" fill="#e28086" r="33.493"/><path d="m407.534 358.852h-394.294c-7.312 0-13.24 5.928-13.24 13.24v120.371c0 7.312 5.928 13.24 13.24 13.24h394.295c7.312 0 13.24-5.928 13.24-13.24v-120.371c-.001-7.312-5.928-13.24-13.241-13.24z" fill="#f9f6f6"/><path d="m407.534 358.852h-27.968v88.387c0 20.91-16.95 37.86-37.86 37.86h-341.706v7.364c0 7.312 5.928 13.24 13.24 13.24h394.295c7.312 0 13.24-5.928 13.24-13.24v-120.371c-.001-7.312-5.928-13.24-13.241-13.24z" fill="#efe7e4"/><path d="m391.466 395.886c0 4.267-3.459 7.726-7.726 7.726s-7.726-3.459-7.726-7.726 3.459-7.726 7.726-7.726 7.726 3.459 7.726 7.726zm-7.726 65.056c-4.267 0-7.726 3.459-7.726 7.726s3.459 7.726 7.726 7.726 7.726-3.459 7.726-7.726c0-4.266-3.459-7.726-7.726-7.726z" fill="#efe7e4"/><g fill="#dad0cb"><circle cx="383.74" cy="468.669" r="7.726"/><path d="m383.74 388.159c-1.537 0-2.97.449-4.173 1.223v13.007c1.203.774 2.636 1.223 4.173 1.223 4.267 0 7.726-3.459 7.726-7.726s-3.459-7.727-7.726-7.727z"/></g><g fill="#efe7e4"><circle cx="37.034" cy="395.886" r="7.726"/><circle cx="37.034" cy="468.669" r="7.726"/><path d="m110.964 460.875c-4.267 0-7.726-3.459-7.726-7.726v-41.743c0-4.267 3.459-7.726 7.726-7.726s7.726 3.459 7.726 7.726v41.743c0 4.267-3.459 7.726-7.726 7.726z"/><path d="m139.37 460.875c-4.267 0-7.726-3.459-7.726-7.726v-41.743c0-4.267 3.459-7.726 7.726-7.726s7.726 3.459 7.726 7.726v41.743c.001 4.267-3.459 7.726-7.726 7.726z"/><path d="m167.777 460.875c-4.267 0-7.726-3.459-7.726-7.726v-41.743c0-4.267 3.459-7.726 7.726-7.726s7.726 3.459 7.726 7.726v41.743c.001 4.267-3.459 7.726-7.726 7.726z"/><path d="m196.184 460.875c-4.267 0-7.726-3.459-7.726-7.726v-41.743c0-4.267 3.459-7.726 7.726-7.726s7.726 3.459 7.726 7.726v41.743c0 4.267-3.459 7.726-7.726 7.726z"/><path d="m224.59 460.875c-4.267 0-7.726-3.459-7.726-7.726v-41.743c0-4.267 3.459-7.726 7.726-7.726s7.726 3.459 7.726 7.726v41.743c0 4.267-3.459 7.726-7.726 7.726z"/><path d="m252.996 460.875c-4.267 0-7.726-3.459-7.726-7.726v-41.743c0-4.267 3.459-7.726 7.726-7.726s7.726 3.459 7.726 7.726v41.743c0 4.267-3.458 7.726-7.726 7.726z"/><path d="m281.403 460.875c-4.268 0-7.726-3.459-7.726-7.726v-41.743c0-4.267 3.459-7.726 7.726-7.726s7.726 3.459 7.726 7.726v41.743c.001 4.267-3.458 7.726-7.726 7.726z"/><path d="m309.81 460.875c-4.268 0-7.726-3.459-7.726-7.726v-41.743c0-4.267 3.459-7.726 7.726-7.726 4.268 0 7.726 3.459 7.726 7.726v41.743c0 4.267-3.459 7.726-7.726 7.726z"/></g><circle cx="210.387" cy="190.356" fill="#e28086" r="184.058"/><path d="m271.354 16.636c49.371 33.011 81.883 89.267 81.883 153.116 0 101.652-82.406 184.058-184.058 184.058-21.369 0-41.887-3.642-60.968-10.338 29.231 19.545 64.372 30.942 102.175 30.942 101.652 0 184.058-82.406 184.058-184.058.001-80.284-51.401-148.562-123.09-173.72z" fill="#dd636e"/><circle cx="210.387" cy="190.356" fill="#f9f6f6" r="57.58"/><circle cx="210.387" cy="190.356" fill="#665e66" r="20.002"/></g></svg>