<svg id="Capa_1" enable-background="new 0 0 512 512" height="512" viewBox="0 0 512 512" width="512" xmlns="http://www.w3.org/2000/svg"><g><g fill="#a6b0bd"><path d="m288.861 9.666c-10.753-1.421-21.72-2.166-32.861-2.166s-22.108.745-32.861 2.166l-7.993 47.958h81.708z"/><path d="m105.052 58.579c-8.608 6.599-16.89 13.826-24.768 21.705s-15.106 16.159-21.705 24.768l28.259 39.563 57.776-57.776z"/><path d="m9.666 223.139c-1.421 10.753-2.166 21.72-2.166 32.861s.745 22.108 2.166 32.861l47.958 7.993v-81.708z"/><path d="m58.579 406.948c6.599 8.608 13.826 16.89 21.705 24.768s16.159 15.106 24.768 21.705l39.563-28.259-57.776-57.776z"/><path d="m223.139 502.334c10.753 1.421 21.72 2.166 32.861 2.166s22.108-.745 32.861-2.166l7.993-47.958h-81.708z"/><path d="m406.948 453.421c8.608-6.599 16.89-13.826 24.768-21.705s15.106-16.159 21.705-24.768l-28.259-39.563-57.776 57.776z"/><path d="m502.334 288.861c1.421-10.753 2.166-21.72 2.166-32.861s-.745-22.108-2.166-32.861l-47.958-7.993v81.708z"/><path d="m453.421 105.052c-6.599-8.608-13.826-16.89-21.705-24.768s-16.159-15.106-24.768-21.705l-39.563 28.259 57.776 57.776z"/></g><path d="m256 53.5c-111.838 0-202.5 90.662-202.5 202.5s90.662 202.5 202.5 202.5 202.5-90.662 202.5-202.5-90.662-202.5-202.5-202.5z" fill="#c0c8d2"/><path d="m256 83.5v345c95.269 0 172.5-77.231 172.5-172.5s-77.231-172.5-172.5-172.5z" fill="#1a64b6"/><path d="m256 83.5c-95.269 0-172.5 77.231-172.5 172.5s77.231 172.5 172.5 172.5c78.701 0 142.5-77.231 142.5-172.5s-63.799-172.5-142.5-172.5z" fill="#1e8aff"/><path d="m256 143.5v225c62.132 0 112.5-50.368 112.5-112.5s-50.368-112.5-112.5-112.5z" fill="#dfedff"/><path d="m256 143.5c-62.132 0-112.5 50.368-112.5 112.5s50.368 112.5 112.5 112.5c45.563 0 82.5-50.368 82.5-112.5s-36.936-112.5-82.5-112.5z" fill="#fff"/><circle cx="256" cy="173.5" r="7.5"/><path d="m218.5 191.048c3.587-2.071 4.816-6.658 2.745-10.245s-6.658-4.816-10.245-2.745-4.816 6.658-2.745 10.245 6.658 4.816 10.245 2.745z"/><path d="m180.803 221.245c3.587 2.071 8.174.842 10.245-2.745s.842-8.174-2.745-10.245-8.174-.842-10.245 2.745-.842 8.174 2.745 10.245z"/><circle cx="173.5" cy="256" r="7.5"/><path d="m188.303 303.745c3.587-2.071 4.816-6.658 2.745-10.245s-6.658-4.816-10.245-2.745-4.816 6.658-2.745 10.245 6.658 4.816 10.245 2.745z"/><path d="m218.5 320.952c-3.587-2.071-8.174-.842-10.245 2.745s-.842 8.174 2.745 10.245 8.174.842 10.245-2.745.842-8.174-2.745-10.245z"/><circle cx="256" cy="338.5" r="7.5"/><ellipse cx="297.25" cy="327.447" rx="7.5" ry="7.5" transform="matrix(.259 -.966 .966 .259 -95.973 529.819)"/><path d="m323.697 303.745c3.587 2.071 8.174.842 10.245-2.745s.842-8.174-2.745-10.245-8.174-.842-10.245 2.745-.842 8.174 2.745 10.245z"/><circle cx="338.5" cy="256" r="7.5"/><path d="m331.197 221.245c3.587-2.071 4.816-6.658 2.745-10.245s-6.658-4.816-10.245-2.745-4.816 6.658-2.745 10.245 6.658 4.816 10.245 2.745z"/><path d="m293.5 191.048c3.587 2.071 8.174.842 10.245-2.745s.842-8.174-2.745-10.245-8.174-.842-10.245 2.745-.842 8.174 2.745 10.245z"/><path d="m509.77 222.157c-.432-3.27-2.949-5.874-6.203-6.416l-42.944-7.158c-5.209-22.591-14.08-43.981-26.424-63.718l25.325-35.455c1.917-2.684 1.856-6.305-.151-8.922-6.875-8.967-14.395-17.549-22.354-25.508s-16.542-15.48-25.508-22.354c-2.618-2.006-6.238-2.068-8.922-.15l-35.454 25.325c-19.737-12.344-41.126-21.215-63.718-26.424l-7.158-42.944c-.542-3.253-3.146-5.771-6.416-6.203-11.201-1.48-22.588-2.23-33.843-2.23s-22.642.75-33.843 2.23c-3.27.432-5.874 2.949-6.416 6.203l-7.158 42.944c-22.591 5.209-43.981 14.08-63.718 26.424l-35.455-25.325c-2.684-1.917-6.305-1.854-8.922.15-8.967 6.874-17.549 14.395-25.508 22.354-7.959 7.958-15.48 16.541-22.354 25.508-2.006 2.618-2.067 6.239-.15 8.922l25.325 35.455c-12.345 19.737-21.215 41.126-26.424 63.718l-42.944 7.158c-3.253.542-5.771 3.146-6.203 6.416-1.48 11.201-2.23 22.588-2.23 33.843s.75 22.642 2.23 33.844c.432 3.27 2.949 5.874 6.203 6.416l42.944 7.157c5.209 22.589 14.081 43.982 26.424 63.718l-25.325 35.454c-1.917 2.684-1.856 6.305.151 8.922 6.875 8.967 14.395 17.55 22.354 25.508 7.958 7.958 16.541 15.479 25.508 22.354 2.617 2.006 6.237 2.067 8.922.151l35.454-25.325c19.737 12.344 41.127 21.215 63.718 26.424l7.158 42.944c.542 3.253 3.146 5.771 6.416 6.203 11.201 1.48 22.588 2.23 33.843 2.23s22.642-.75 33.843-2.23c3.27-.432 5.874-2.949 6.416-6.203l7.158-42.944c22.592-5.209 43.981-14.08 63.718-26.424l35.454 25.325c2.685 1.918 6.305 1.856 8.922-.151 8.967-6.875 17.549-14.395 25.508-22.354 7.959-7.958 15.479-16.541 22.354-25.508 2.007-2.618 2.068-6.239.151-8.922l-25.325-35.454c12.344-19.736 21.215-41.129 26.424-63.718l42.944-7.157c3.253-.542 5.771-3.146 6.203-6.416 1.48-11.202 2.23-22.589 2.23-33.844s-.75-22.642-2.23-33.843zm-14.209 60.23-42.417 7.069c-3.061.51-5.492 2.853-6.115 5.893-4.97 24.263-14.44 47.101-28.147 67.879-1.709 2.59-1.646 5.964.157 8.489l25.015 35.02c-5.525 6.876-11.442 13.478-17.641 19.676s-12.799 12.115-19.676 17.64l-35.02-25.014c-2.525-1.804-5.899-1.867-8.489-.157-20.778 13.707-43.615 23.177-67.879 28.147-3.041.623-5.383 3.054-5.893 6.115l-7.07 42.417c-17.537 1.912-35.235 1.912-52.772 0l-7.07-42.417c-.51-3.061-2.853-5.492-5.893-6.114-24.264-4.971-47.101-14.441-67.879-28.148-2.59-1.709-5.965-1.645-8.489.157l-35.02 25.015c-6.876-5.525-13.477-11.442-19.676-17.64-6.199-6.199-12.116-12.8-17.641-19.676l25.015-35.02c1.803-2.525 1.866-5.899.157-8.489-13.707-20.778-23.177-43.616-28.147-67.879-.623-3.041-3.054-5.383-6.115-5.893l-42.417-7.069c-.956-8.77-1.439-17.622-1.439-26.388s.483-17.618 1.439-26.386l42.417-7.07c3.061-.51 5.492-2.853 6.114-5.893 4.971-24.264 14.441-47.101 28.148-67.879 1.709-2.59 1.646-5.964-.157-8.489l-25.014-35.02c5.524-6.876 11.441-13.477 17.641-19.676 6.198-6.199 12.799-12.116 19.675-17.64l35.02 25.014c2.525 1.803 5.899 1.866 8.489.157 20.778-13.707 43.615-23.177 67.879-28.148 3.04-.623 5.382-3.053 5.893-6.114l7.07-42.417c17.537-1.912 35.235-1.912 52.772 0l7.07 42.417c.51 3.061 2.853 5.492 5.893 6.114 24.264 4.971 47.102 14.441 67.879 28.148 2.59 1.709 5.965 1.646 8.489-.157l35.02-25.014c6.876 5.524 13.477 11.441 19.676 17.64 6.198 6.199 12.115 12.799 17.64 19.676l-25.015 35.02c-1.803 2.525-1.866 5.899-.157 8.489 13.707 20.778 23.177 43.615 28.148 67.879.623 3.04 3.053 5.382 6.114 5.893l42.417 7.07c.957 8.768 1.44 17.62 1.44 26.386s-.483 17.618-1.439 26.387z"/><path d="m256 376c66.168 0 120-53.832 120-120s-53.832-120-120-120-120 53.832-120 120 53.832 120 120 120zm0-225c57.897 0 105 47.103 105 105s-47.103 105-105 105-105-47.103-105-105 47.103-105 105-105z"/><path d="m210.559 289.741c1.272 0 2.562-.324 3.743-1.006l45.448-26.24c2.32-1.34 3.75-3.815 3.75-6.495v-52.5c0-4.142-3.358-7.5-7.5-7.5s-7.5 3.358-7.5 7.5v48.17l-41.698 24.075c-3.587 2.071-4.816 6.658-2.745 10.245 1.389 2.406 3.91 3.751 6.502 3.751z"/><path d="m256 76c-42.287 0-83.386 14.967-115.727 42.143-3.171 2.665-3.582 7.396-.917 10.567 2.664 3.17 7.396 3.582 10.567.917 29.642-24.909 67.315-38.627 106.077-38.627 90.981 0 165 74.019 165 165s-74.019 165-165 165-165-74.019-165-165c0-38.762 13.718-76.435 38.626-106.077 2.665-3.171 2.254-7.902-.917-10.567s-7.903-2.255-10.567.917c-27.175 32.341-42.142 73.44-42.142 115.727 0 99.252 80.748 180 180 180s180-80.748 180-180-80.748-180-180-180z"/></g></svg>