<?xml version="1.0" encoding="iso-8859-1"?>
<!-- Generator: Adobe Illustrator 19.0.0, SVG Export Plug-In . SVG Version: 6.00 Build 0)  -->
<svg version="1.1" id="Capa_1" xmlns="http://www.w3.org/2000/svg" xmlns:xlink="http://www.w3.org/1999/xlink" x="0px" y="0px"
	 viewBox="0 0 512 512" style="enable-background:new 0 0 512 512;" xml:space="preserve">
<path style="fill:#FFFFFF;" d="M502,372V90c0-22.091-17.909-40-40-40H50c-22.091,0-40,17.909-40,40v372c0,22.091,17.909,40,40,40
	h322L502,372z"/>
<g>
	<rect x="64" y="384" style="fill:#C9F3FF;" width="64" height="64"/>
	<rect x="277.33" y="384" style="fill:#C9F3FF;" width="64" height="64"/>
	<rect x="170.67" y="384" style="fill:#C9F3FF;" width="64" height="64"/>
</g>
<path style="fill:#FF5D5D;" d="M374,502v-88c0-22.091,17.909-40,40-40h88L374,502z"/>
<rect x="64" y="262" style="fill:#C9F3FF;" width="64" height="64"/>
<rect x="384" y="262" style="fill:#62CD4D;" width="64" height="64"/>
<g>
	<rect x="277.33" y="262" style="fill:#C9F3FF;" width="64" height="64"/>
	<rect x="170.67" y="262" style="fill:#C9F3FF;" width="64" height="64"/>
	<rect x="64" y="140" style="fill:#C9F3FF;" width="64" height="64"/>
</g>
<rect x="384" y="140" style="fill:#62CD4D;" width="64" height="64"/>
<g>
	<rect x="277.33" y="140" style="fill:#C9F3FF;" width="64" height="64"/>
	<rect x="170.67" y="140" style="fill:#C9F3FF;" width="64" height="64"/>
</g>
<path d="M335,492c-2.63,0-5.21,1.069-7.07,2.93S325,499.37,325,502s1.069,5.21,2.93,7.069c1.86,1.86,4.44,2.931,7.07,2.931
	s5.21-1.07,7.069-2.931C343.93,507.21,345,504.63,345,502s-1.07-5.21-2.931-7.07C340.21,493.069,337.63,492,335,492z"/>
<path d="M512,90c0-27.57-22.43-50-50-50h-14.254v-6c0-18.748-15.252-34-34-34s-34,15.252-34,34v6h-89.873v-6
	c0-18.748-15.252-34-34-34s-34,15.252-34,34v6H132v-6c0-18.748-15.252-34-34-34S64,15.252,64,34v6H50C22.43,40,0,62.43,0,90v372
	c0,27.57,22.43,50,50,50h243c5.522,0,10-4.478,10-10s-4.478-10-10-10H50c-16.542,0-30-13.458-30-30V90c0-16.542,13.458-30,30-30h14
	v18.168c0,18.748,15.252,34,34,34c5.522,0,10-4.477,10-10s-4.478-10-10-10c-7.72,0-14-6.28-14-14V60h137.873v18.168
	c0,18.748,15.252,34,34,34c5.522,0,10-4.477,10-10s-4.478-10-10-10c-7.72,0-14-6.28-14-14V60h137.873v18.168
	c0,18.748,15.252,34,34,34c5.522,0,10-4.477,10-10s-4.478-10-10-10c-7.72,0-14-6.28-14-14V60H462c16.542,0,30,13.458,30,30v274h-78
	c-27.57,0-50,22.43-50,50v88c0,4.045,2.437,7.691,6.173,9.239c1.237,0.512,2.537,0.761,3.825,0.761c2.603,0,5.16-1.016,7.073-2.929
	l128-128c2.154-2.155,3.169-5.127,2.878-8.06c0.033-0.333,0.051-0.67,0.051-1.011V90z M84,34c0-7.72,6.28-14,14-14s14,6.28,14,14v6
	H84V34z M241.873,34c0-7.72,6.28-14,14-14c7.72,0,14,6.28,14,14v6h-28L241.873,34L241.873,34z M399.746,34c0-7.72,6.28-14,14-14
	s14,6.28,14,14v6h-28V34z M384,477.857V414c0-16.542,13.458-30,30-30h63.857L384,477.857z"/>
<path d="M128,316H74v-54c0-5.523-4.478-10-10-10s-10,4.477-10,10v64c0,5.522,4.478,10,10,10h64c5.522,0,10-4.478,10-10
	S133.522,316,128,316z"/>
<path d="M374,326c0,5.522,4.478,10,10,10h64c5.522,0,10-4.478,10-10v-64c0-5.523-4.478-10-10-10h-64c-5.522,0-10,4.477-10,10V326z
	 M394,272h44v44h-44V272z"/>
<path d="M341.333,316h-54v-54c0-5.523-4.478-10-10-10s-10,4.477-10,10v64c0,5.522,4.478,10,10,10h64c5.522,0,10-4.478,10-10
	S346.855,316,341.333,316z"/>
<path d="M234.667,316h-54v-54c0-5.523-4.478-10-10-10s-10,4.477-10,10v64c0,5.522,4.478,10,10,10h64c5.522,0,10-4.478,10-10
	S240.189,316,234.667,316z"/>
<path d="M64,374c-5.522,0-10,4.478-10,10v64c0,5.522,4.478,10,10,10h64c5.522,0,10-4.478,10-10s-4.478-10-10-10H74v-54
	C74,378.478,69.522,374,64,374z"/>
<path d="M341.333,438h-54v-54c0-5.522-4.478-10-10-10s-10,4.478-10,10v64c0,5.522,4.478,10,10,10h64c5.522,0,10-4.478,10-10
	S346.855,438,341.333,438z"/>
<path d="M170.667,374c-5.522,0-10,4.478-10,10v64c0,5.522,4.478,10,10,10h64c5.522,0,10-4.478,10-10s-4.478-10-10-10h-54v-54
	C180.667,378.478,176.189,374,170.667,374z"/>
<path d="M128,194H74v-54c0-5.523-4.478-10-10-10s-10,4.477-10,10v64c0,5.523,4.478,10,10,10h64c5.522,0,10-4.477,10-10
	S133.522,194,128,194z"/>
<path d="M384,214h64c5.522,0,10-4.477,10-10v-64c0-5.523-4.478-10-10-10h-64c-5.522,0-10,4.477-10,10v64
	C374,209.523,378.478,214,384,214z M394,150h44v44h-44V150z"/>
<path d="M341.333,194h-54v-54c0-5.523-4.478-10-10-10s-10,4.477-10,10v64c0,5.523,4.478,10,10,10h64c5.522,0,10-4.477,10-10
	S346.855,194,341.333,194z"/>
<path d="M234.667,194h-54v-54c0-5.523-4.478-10-10-10s-10,4.477-10,10v64c0,5.523,4.478,10,10,10h64c5.522,0,10-4.477,10-10
	S240.189,194,234.667,194z"/>
<g>
</g>
<g>
</g>
<g>
</g>
<g>
</g>
<g>
</g>
<g>
</g>
<g>
</g>
<g>
</g>
<g>
</g>
<g>
</g>
<g>
</g>
<g>
</g>
<g>
</g>
<g>
</g>
<g>
</g>
</svg>
