<svg id="Layer_1" height="512" viewBox="0 0 91 91" width="512" xmlns="http://www.w3.org/2000/svg" data-name="Layer 1"><path d="m5.03 14.29h73.46v54.86h-73.46z" fill="#d7c1b7"/><path d="m75.37 69.63a11.15 11.15 0 0 1 -6.15 3.78h-4.13a11.12 11.12 0 0 1 -6.27-3.8 7.44 7.44 0 0 0 -4.49 7.11v11.84h25.67v-11.82c0-3.27-1.51-5.59-4.63-7.11z" fill="#b0d4e8"/><path d="m44 77.08h-39a1.75 1.75 0 0 1 -1.75-1.75v-61.27a1.78 1.78 0 0 1 .51-1.24 1.76 1.76 0 0 1 1.24-.51h80.37a1.75 1.75 0 0 1 1.75 1.75v39.88a1.75 1.75 0 0 1 -3.5 0v-38.13h-76.84v57.77h37.22a1.75 1.75 0 1 1 0 3.5z" fill="#4e7a9e"/><path d="m72.06 39.17h-53.71l-13.31-25.11h80.33z" fill="#c5afa6"/><path d="m72.06 40.92h-53.71a1.73 1.73 0 0 1 -1.55-.92l-13.31-25.12a1.75 1.75 0 0 1 1.51-2.57h80.37a1.75 1.75 0 0 1 1.55 2.57l-13.31 25.12a1.73 1.73 0 0 1 -1.55.92zm-52.66-3.5h51.6l11.47-21.61h-74.53z" fill="#4e7a9e"/><path d="m57.85 15.81h-25.29a1.75 1.75 0 0 1 -1.75-1.75v-11.32a1.75 1.75 0 0 1 1.75-1.74h25.29a1.75 1.75 0 0 1 1.75 1.74v11.32a1.75 1.75 0 0 1 -1.75 1.75zm-23.54-3.5h21.79v-7.82h-21.79z" fill="#4e7a9e"/><path d="m54.21 39.17a9 9 0 1 1 -18 0z" fill="#fff"/><path d="m45.21 49.93a10.78 10.78 0 0 1 -10.76-10.76 1.76 1.76 0 0 1 1.75-1.75h18a1.76 1.76 0 0 1 1.8 1.75 10.77 10.77 0 0 1 -10.79 10.76zm-7-9a7.25 7.25 0 0 0 14.07 0z" fill="#4e7a9e"/><path d="m78.56 61a11.39 11.39 0 1 1 -11.38-11.49 11.42 11.42 0 0 1 11.38 11.49z" fill="#fff"/><g fill="#4e7a9e"><path d="m67.18 74.17a13.21 13.21 0 1 1 13.13-13.17 13.19 13.19 0 0 1 -13.13 13.17zm0-22.91a9.71 9.71 0 1 0 9.63 9.74 9.68 9.68 0 0 0 -9.63-9.74z"/><path d="m81.29 89.16h-4.55a1.75 1.75 0 1 1 0-3.5h2.8v-9.76c0-1.68-.46-4.09-4.5-5.71a1.75 1.75 0 1 1 1.3-3.25c5.54 2.22 6.7 6.1 6.7 9v11.47a1.75 1.75 0 0 1 -1.75 1.75z"/><path d="m57.85 89.16h-4.61a1.75 1.75 0 0 1 -1.75-1.75v-11.51c0-2.85 1.13-6.72 6.5-9a1.75 1.75 0 0 1 1.35 3.23c-3 1.23-4.35 3-4.35 5.72v9.76h2.86a1.75 1.75 0 0 1 0 3.5z"/></g><path d="m71.27 83.22-4 4.92-4-4.92 2.54-10.8h1.45 1.43z" fill="#fff"/><path d="m67.27 89.9a1.75 1.75 0 0 1 -1.36-.65l-4-4.93a1.76 1.76 0 0 1 -.35-1.5l2.54-10.82a1.75 1.75 0 0 1 1.7-1.35h2.89a1.74 1.74 0 0 1 1.7 1.35l2.61 10.81a1.78 1.78 0 0 1 -.34 1.51l-4 4.93a1.75 1.75 0 0 1 -1.36.65zm-2.1-7.12 2.1 2.59 2.09-2.58-2.1-8.62h-.07z" fill="#4e7a9e"/></svg>