<svg id="Capa_1" enable-background="new 0 0 512 512" height="512" viewBox="0 0 512 512" width="512" xmlns="http://www.w3.org/2000/svg"><g><path d="m429.5 287.5h45v202h-45z" fill="#ffd17e"/><path d="m37.5 287.5h407v202h-407z" fill="#ffeac3"/><path d="m414.5 242.5-158.5 30-158.5-30 158.5-75z" fill="#ffeac3"/><path d="m339.5 287.5v60h-45l-38.5-60z" fill="#ff9441"/><path d="m172.83 287.5h121.67v60h-121.67z" fill="#ffb739"/><path d="m294.5 377.5v112h-77l47-112z" fill="#ff4e51"/><path d="m217.5 377.5h47v112h-47z" fill="#ff7149"/><g fill="#fff7e8"><path d="m384.5 287.5h30v202h-30z"/><path d="m324.5 287.5h30v202h-30z"/><path d="m157.5 287.5h30v202h-30z"/><path d="m97.5 287.5h30v202h-30z"/></g><path d="m97.5 242.5h-75v60h75l30-30z" fill="#ffb739"/><path d="m459.5 242.5-30 30 30 30h30v-60z" fill="#ff9441"/><path d="m414.5 242.5-30 30 30 30h45v-60z" fill="#ffb739"/><path d="m97.5 242.5h317v60h-317z" fill="#ffd17e"/><path d="m504.5 474.5v30h-30l-30-15 30-15z" fill="#ff9441"/><path d="m7.5 474.5h467v30h-467z" fill="#ffb739"/><path d="m119.667 37.5 30 52.5-30 67.5h-30v-120z" fill="#ff7149"/><path d="m179.667 37.5-15 120h-45v-120z" fill="#ff4e51"/><path d="m256 7.5h-30l-45 52.5 45 67.5h30z" fill="#ff4e51"/><path d="m164.667 7.5c-8.25 0-15 6.75-15 15v120l30-15h46.333v-120z" fill="#ff7149"/><path d="m164.667 127.5c-8.284 0-15 6.716-15 15s6.716 15 15 15 15-6.716 15-15v-15z" fill="#ff2b59"/><path d="m504.5 467h-22.5v-157h7.5c4.142 0 7.5-3.357 7.5-7.5v-60c0-4.143-3.358-7.5-7.5-7.5h-73.315l-152.685-72.248v-155.252c0-4.143-3.358-7.5-7.5-7.5h-91.333c-12.407 0-22.5 10.094-22.5 22.5v7.5h-52.5c-4.142 0-7.5 3.357-7.5 7.5v120c0 4.143 3.358 7.5 7.5 7.5h75c12.407 0 22.5-10.094 22.5-22.5v-7.5h61.333v27.752l-152.685 72.248h-73.315c-4.142 0-7.5 3.357-7.5 7.5v60c0 4.143 3.358 7.5 7.5 7.5h7.5v157h-22.5c-4.142 0-7.5 3.357-7.5 7.5v30c0 4.143 3.358 7.5 7.5 7.5h497c4.142 0 7.5-3.357 7.5-7.5v-30c0-4.143-3.358-7.5-7.5-7.5zm-22.5-172h-37.5c-4.142 0-7.5 3.357-7.5 7.5s3.358 7.5 7.5 7.5h22.5v157h-45v-217h60zm-195 172h-62v-82h62zm7.5-97h-77c-4.142 0-7.5 3.357-7.5 7.5v89.5h-15v-112h122v112h-15v-89.5c0-4.143-3.358-7.5-7.5-7.5zm112.5-120v45h-302v-45zm-90 90h-122v-30h122zm-212-30h15v157h-15zm30 0h15v157h-15zm30 0h15v157h-15zm167 0h15v157h-15zm30 0h15v157h-15zm30 0h15v157h-15zm-294.833-265h45v97.5c0 2.629.458 5.153 1.29 7.5h-46.29zm75 97.5c0 4.136-3.364 7.5-7.5 7.5s-7.5-3.364-7.5-7.5 3.364-7.5 7.5-7.5h7.5zm-7.5-22.5c-2.629 0-5.153.458-7.5 1.29v-98.79c0-4.136 3.365-7.5 7.5-7.5h83.833v105zm91.333 55.797 125.116 59.203h-250.232zm-211 134.203h22.5c4.142 0 7.5-3.357 7.5-7.5s-3.358-7.5-7.5-7.5h-37.5v-45h60v217h-45zm452 187h-482v-15h482z"/></g></svg>