<svg id="Capa_1" enable-background="new 0 0 512 512" height="512" viewBox="0 0 512 512" width="512" xmlns="http://www.w3.org/2000/svg"><g><path d="m311.585 192.007h-3.154l-10.682-64.724h32.572c12.041 0 21.802 9.761 21.802 21.802v2.385c-.001 22.387-18.15 40.537-40.538 40.537z" fill="#ffcbbe"/><path d="m114.21 192.007h3.155l13.309-64.724h-35.2c-12.041 0-21.802 9.761-21.802 21.802v2.385c.001 22.387 18.15 40.537 40.538 40.537z" fill="#ffddce"/><path d="m372.589 423.128-10.311-97.812-51.509-13.478-97.872 70.948-97.872-70.948h-51.33c-33.767 0-61.141 27.374-61.141 61.141v133.101c0 3.268 2.649 5.916 5.916 5.916l204.428-.001h148.911c-28.232-.251-17.668-88.867 10.78-88.867z" fill="#e28086"/><path d="m212.898 426.663c54.054 0 97.871-56.066 97.872-114.825h-26.925c0 39.183-141.894 39.183-141.894 0h-26.925c0 58.759 43.818 114.825 97.872 114.825z" fill="#80b4fb"/><path d="m312.733 474.625c-19.272 10.684-41.448 16.768-65.045 16.768h-75.999-169.136v14.688c0 3.267 2.649 5.916 5.916 5.916l204.428-.001h148.911z" fill="#dd636e"/><path d="m63.219 511.997h15.453v-85.334c0-4.268-3.459-7.726-7.726-7.726s-7.726 3.459-7.726 7.726v85.334z" fill="#dd636e"/><path d="m63.219 491.393h15.453v20.604h-15.453z" fill="#da4a54"/><path d="m499.144 497.225-142.124-7.532c-14.77 0-26.744-13.074-26.744-29.201 0-16.127 11.974-29.201 26.744-29.201l142.124-7.532z" fill="#f9f6f6"/><path d="m509.446 432.201v-20.685c0-1.4-1.135-2.535-2.535-2.535h-144.632c-28.448 0-51.509 23.061-51.509 51.509 0 28.448 23.061 51.509 51.509 51.509h144.633c1.4 0 2.535-1.135 2.535-2.535v-20.684c0-1.4-1.135-2.535-2.535-2.535h-144.634c-14.224 0-25.755-11.531-25.755-25.755 0-14.224 11.531-25.755 25.755-25.755h144.633c1.4.001 2.535-1.134 2.535-2.534z" fill="#ffe07d"/><path d="m321.071 399.407 140.042-11.968c14.554 0 26.352-13.417 26.352-29.967 0-16.55-11.798-29.967-26.352-29.967l-140.042-11.968z" fill="#f9f6f6"/><path d="m141.95 311.839c0 39.183 31.764 70.948 70.947 70.948s70.947-31.765 70.947-70.948h-10.307c-4.832 0-8.75-3.917-8.75-8.75v-35.243c-18.192 12.444-85.591 12.444-103.782 0v35.243c0 4.832-3.917 8.75-8.75 8.75z" fill="#ffcbbe"/><path d="m499.144 452.765h-129.671c-4.268 0-7.726 3.459-7.726 7.726 0 4.268 3.459 7.726 7.726 7.726h129.671z" fill="#efe7e4"/><path d="m450.742 349.746h-129.671v15.453h129.671c4.268 0 7.726-3.459 7.726-7.726s-3.458-7.727-7.726-7.727z" fill="#efe7e4"/><path d="m313.304 331.718c-1.4 0-2.535-1.135-2.535-2.535v-20.685c0-1.4 1.135-2.535 2.535-2.535h144.633c28.448 0 51.509 23.061 51.509 51.509 0 28.448-23.061 51.509-51.509 51.509h-144.633c-1.4 0-2.535-1.135-2.535-2.535v-20.685c0-1.4 1.135-2.535 2.535-2.535h144.633c14.224 0 25.755-11.531 25.755-25.755 0-14.224-11.531-25.755-25.755-25.755h-144.633z" fill="#78c2a4"/><path d="m210.808 56.562c-86.94 0-95.844 102.847-95.844 102.847 1.655 22.477 3.243 44.038 3.243 44.038 3.653 49.598 64.798 83.969 94.69 83.969s91.037-34.371 94.69-83.969c0 0 1.549-21.033 3.182-43.208.001-.001-13.021-103.677-99.961-103.677z" fill="#ffece4"/><path d="m212.898 0c-23.836.001-45.651 8.151-62.927 21.741-10.463 8.231-11.487 23.738-2.39 33.457.001.001.002.002.002.002l-.002-.002c-8.182-8.741-22.559-6.286-27.514 4.613-6.816 14.994-10.09 31.885-8.789 49.56 0 0 1.883 25.562 3.685 50.037l16.885-16.885c8.734-8.734 13.641-20.58 13.641-32.932 0-16.789 13.61-30.4 30.4-30.4h.377c6.974 0 13.202 3.959 16.616 10.04 3.518 6.267 10.227 10.502 17.926 10.502s14.408-4.235 17.926-10.502c3.413-6.081 9.642-10.04 16.616-10.04h3.599c16.686 0 30.571 13.421 30.466 30.106-.078 12.458 4.837 24.423 13.64 33.226l17.715 17.715c1.821-24.723 3.746-50.866 3.747-50.866 4.349-59.062-42.398-109.37-101.619-109.372z" fill="#8e736e"/><path d="m273.138 91.09c-.51 6.924-2.078 28.214-3.575 48.544-1.633 22.175-3.182 43.208-3.182 43.208-3.653 49.598-64.798 83.969-94.69 83.969-4.491 0-9.688-.776-15.29-2.263 19.325 14.475 41.727 22.867 56.497 22.867 29.892 0 91.037-34.371 94.69-83.969 0 0 1.549-21.033 3.182-43.208 0 0-3.108-69.148-37.632-69.148z" fill="#ffddce"/><path d="m236.648 2.777c24.438 20.254 39.191 51.642 36.661 85.991 0 0-.058.783-.163 2.206 3.958 5.068 6.312 11.416 6.269 18.324-.078 12.458 4.837 24.422 13.64 33.226l17.715 17.715c1.821-24.723 3.746-50.866 3.747-50.866 3.747-50.896-30.447-95.29-77.869-106.596z" fill="#7a635e"/><path d="m199.92 155.557h-38.83c-4.267 0-7.726-3.459-7.726-7.726 0-4.268 3.459-7.726 7.726-7.726h38.83c4.267 0 7.726 3.459 7.726 7.726s-3.459 7.726-7.726 7.726zm33.678 30.816v-25.567c0-2.894 2.355-5.25 5.25-5.25h25.854c4.268 0 7.726-3.459 7.726-7.726 0-4.268-3.459-7.726-7.726-7.726h-25.854c-11.415 0-20.702 9.287-20.702 20.702v25.567c0 2.894-2.355 5.25-5.25 5.25-4.267 0-7.726 3.459-7.726 7.726 0 4.268 3.459 7.726 7.726 7.726 11.415 0 20.702-9.287 20.702-20.702zm10.681 44.773c-2.113-2.495-5.571-3.328-8.621-2.153-4.333 1.67-11.697 3.572-22.759 3.572-11.063 0-18.426-1.901-22.76-3.572-3.051-1.176-6.508-.342-8.621 2.153l-.165.195c-3.378 3.988-1.828 10.11 3.041 12.011 6.049 2.361 15.329 4.666 28.506 4.666s22.456-2.305 28.505-4.666c4.869-1.901 6.418-8.022 3.041-12.011z" fill="#ffddce"/><g fill="#ffcbbe"><path d="m268.462 154.582c2.367-1.32 3.967-3.848 3.967-6.751 0-2.496-1.183-4.714-3.019-6.127-.325 4.416-.645 8.761-.948 12.878z"/><path d="m244.443 231.341-.165-.195c-.241-.284-.499-.547-.772-.787-6.134 6.484-13.083 12.24-20.323 17.154 7.894-.807 13.886-2.47 18.219-4.161 4.87-1.901 6.419-8.023 3.041-12.011z"/></g></g></svg>