<svg id="Capa_1" enable-background="new 0 0 512 512" height="512" viewBox="0 0 512 512" width="512" xmlns="http://www.w3.org/2000/svg"><g><path d="m415.184 152.95h-26.031v13.068c0 7.188 5.827 13.015 13.015 13.015h.001c7.188 0 13.015-5.827 13.015-13.015z" fill="#665e66"/><path d="m150.302 393.379c4.987 0 0-6.352 0-11.339l6.786-69.832c-20.575-14.711-56.116-18.408-58.015-44.193l-.833-11.313v28.615c0 19.335-15.674 35.01-35.01 35.01h-24.15c-2.237 0-3.358 2.705-1.776 4.287l18.714 18.714c13.545 13.545 29.486 24.144 46.825 31.386z" fill="#dd636e"/><path d="m246.776 393.379c-4.987 0-18.436-6.352-18.436-11.339v-69.832c20.575-14.711 56.116-18.408 58.015-44.193l.833-11.313v28.615c0 19.335 15.674 35.01 35.01 35.01h24.15c2.237 0 3.358 2.705 1.776 4.287l-18.714 18.714c-13.545 13.545-29.486 24.144-46.825 31.386z" fill="#dd636e"/><path d="m75.435 192.694h19.297l12.743 7.065c.474 6.434 1.589 10.349 7.189 9.295l-16.425 47.647h-3.119c-22.14 0-40.089-17.948-40.089-40.089v-3.515c0-11.268 9.135-20.403 20.404-20.403z" fill="#ffddce"/><path d="m309.993 192.694h-25.003c-.817.499-7.135.943-8.028 1.324l10.225 62.683h3.12c22.14 0 40.089-17.948 40.089-40.089v-3.515c.001-11.268-9.134-20.403-20.403-20.403z" fill="#ffcbbe"/><path d="m419.134 155.994h-33.931c-.781 0-1.415-.634-1.415-1.415v-23.556c0-.782.634-1.415 1.415-1.415h33.931c.782 0 1.415.634 1.415 1.415v23.556c0 .782-.633 1.415-1.415 1.415z" fill="#f9f6f6"/><path d="m458.781 61.461c0-31.721-26.091-57.348-57.985-56.593-29.971.709-54.435 25.106-55.22 55.074-.565 21.585 10.955 40.529 28.283 50.554 2.05 1.186 3.476 3.213 4.001 5.522l1.649 7.264c.841 3.701 4.131 6.328 7.927 6.328h29.465c3.796 0 7.086-2.627 7.927-6.328l1.665-7.331c.516-2.273 1.924-4.264 3.943-5.43 16.943-9.784 28.345-28.091 28.345-49.06z" fill="#ffe07d"/><path d="m416.655 6.721c7.326 9.542 11.68 21.483 11.68 34.442 0 20.97-11.402 39.276-28.345 49.059-2.019 1.166-3.427 3.157-3.943 5.43l-1.665 7.331c-.841 3.701-4.131 6.328-7.927 6.328h-14.549c.642.407 1.293.802 1.953 1.183 2.05 1.186 3.476 3.213 4.001 5.522l1.649 7.264c.841 3.701 4.131 6.328 7.927 6.328h29.465c3.796 0 7.086-2.627 7.927-6.328l1.665-7.331c.516-2.273 1.924-4.264 3.943-5.43 16.943-9.782 28.345-28.089 28.345-49.059 0-26.257-17.878-48.34-42.126-54.739z" fill="#ffd064"/><path d="m141.912 126.424c29.022 42.682 148.467 68.205 149.893 67.594l-5.45 73.996c-3.612 49.048-64.08 83.039-93.641 83.039s-90.029-33.99-93.641-83.039l-4.34-58.939c1.68-.316 47.179-82.651 47.179-82.651z" fill="#ffece4"/><path d="m193.822 272.325c-4.204 0-7.611-3.407-7.611-7.611s3.407-7.612 7.611-7.612c2.878 0 5.22-2.342 5.22-5.221v-34.655c0-4.204 3.407-7.611 7.611-7.611s7.611 3.407 7.611 7.611v34.655c.001 11.272-9.17 20.444-20.442 20.444z" fill="#ffddce"/><path d="m206.653 219.746h-27.879c-4.204 0-7.611-3.407-7.611-7.611s3.407-7.611 7.611-7.611h27.879c4.204 0 7.611 3.407 7.611 7.611s-3.407 7.611-7.611 7.611z" fill="#efe7e4"/><path d="m273.08 182.077c-7.946 1.358-15.901 17.674-23.78 17.581l-3.54 48.059c-3.612 49.048-64.08 83.039-93.641 83.039-4.463 0-9.631-.775-15.201-2.26 19.094 14.279 41.208 22.557 55.796 22.557 29.561 0 90.029-33.991 93.641-83.039l5.45-73.996c-1.427.611-18.725-11.941-18.725-11.941z" fill="#ffddce"/><path d="m246.268 365.683v-35.547c-18.562 13.272-39.534 20.918-53.554 20.918s-34.992-7.646-53.554-20.918v35.548c0 4.987-4.043 9.03-9.03 9.03h-10.648c0 40.027 33.373 72.476 74.541 72.476s74.541-32.449 74.541-72.476h-13.266c-4.987-.001-9.03-4.044-9.03-9.031z" fill="#ffcbbe"/><path d="m343.965 374.713h-75.401c0 40.027-33.373 72.476-74.541 72.476s-74.541-32.449-74.541-72.476h-75.401c-24.345 0-44.081 19.736-44.081 44.081v84.637c0 3.219 2.609 5.828 5.828 5.828h376.389c3.219 0 5.828-2.609 5.828-5.828v-84.637c.001-24.345-19.735-44.081-44.08-44.081z" fill="#95d6a4"/><path d="m343.965 374.713h-3.474c4.405 6.861 6.96 15.024 6.96 23.784v40.83c0 27.413-22.222 49.636-49.635 49.636h-297.816v14.469c0 3.219 2.61 5.828 5.828 5.828h376.389c3.219 0 5.828-2.609 5.828-5.828v-84.637c.001-24.346-19.735-44.082-44.08-44.082z" fill="#78c2a4"/><path d="m169.946 190.345h-39.289c-4.876 0-8.828 3.952-8.828 8.828v25.923c0 4.876 3.952 8.828 8.828 8.828h39.289c4.876 0 8.828-3.952 8.828-8.828v-25.923c0-4.875-3.952-8.828-8.828-8.828z" fill="#bed8fb"/><path d="m209.254 192.916c-1.606 1.599-2.601 3.812-2.601 6.257v25.923c0 4.876 3.953 8.828 8.828 8.828h39.289c4.876 0 8.828-3.952 8.828-8.828v-25.923c0-.042-.001-6.216-.002-6.257-18.62 1.81-37.105 5.741-54.342 0z" fill="#bed8fb"/><path d="m249.681 194.486-2.905 39.438h7.994c4.876 0 8.828-3.953 8.828-8.828v-25.923c0-.042-.001-6.216-.002-6.257-4.652.452-9.297 1.037-13.915 1.57z" fill="#9dc6fb"/><g fill="#fff0af"><path d="m504.388 69.075h-20.236c-4.204 0-7.611-3.407-7.611-7.611s3.407-7.611 7.611-7.611h20.236c4.204 0 7.612 3.407 7.612 7.611s-3.407 7.611-7.612 7.611z"/><path d="m473.176 28.084c-2.63 0-5.188-1.365-6.599-3.807-2.102-3.64-.854-8.295 2.786-10.397l17.524-10.118c3.638-2.101 8.295-.854 10.397 2.786s.854 8.295-2.786 10.397l-17.524 10.118c-1.197.692-2.506 1.021-3.798 1.021z"/><path d="m490.687 120.186c-1.291 0-2.601-.329-3.799-1.021l-17.524-10.118c-3.64-2.102-4.888-6.757-2.786-10.397 2.1-3.642 6.757-4.887 10.397-2.786l17.524 10.118c3.64 2.102 4.888 6.757 2.786 10.397-1.409 2.442-3.968 3.807-6.598 3.807z"/><path d="m320.185 69.075h-20.236c-4.204 0-7.612-3.407-7.612-7.611s3.407-7.611 7.612-7.611h20.236c4.204 0 7.611 3.407 7.611 7.611s-3.407 7.611-7.611 7.611z"/><path d="m331.162 28.084c-1.291 0-2.601-.329-3.799-1.021l-17.524-10.118c-3.64-2.102-4.888-6.757-2.786-10.397 2.101-3.641 6.758-4.888 10.397-2.786l17.524 10.118c3.64 2.102 4.888 6.757 2.786 10.397-1.409 2.442-3.968 3.807-6.598 3.807z"/><path d="m313.651 120.186c-2.63 0-5.188-1.365-6.599-3.807-2.102-3.64-.854-8.295 2.786-10.397l17.524-10.118c3.639-2.1 8.294-.855 10.397 2.786 2.102 3.64.854 8.295-2.786 10.397l-17.524 10.118c-1.197.692-2.506 1.021-3.798 1.021z"/></g><path d="m80.886 509.259h-15.223c0-.002 0-.003 0-.005v-53.057c0-4.204 3.407-7.611 7.611-7.611s7.611 3.407 7.611 7.611v53.057c.001.002.001.004.001.005zm241.497-.005v-53.057c0-4.204-3.407-7.611-7.612-7.611s-7.611 3.407-7.611 7.611v53.057.005h15.223c0-.001 0-.003 0-.005z" fill="#78c2a4"/><g fill="#66b394"><path d="m322.383 482.465c-4.655 2.657-9.781 4.582-15.223 5.619v21.171.005h15.223c0-.002 0-.003 0-.005z"/><path d="m80.886 488.962h-15.223v20.292.005h15.223v-.005z"/></g><path d="m192.714 314.571c-10.553 0-21.103-3.668-29.518-11.007-3.167-2.763-3.497-7.571-.733-10.739 2.762-3.168 7.571-3.496 10.739-.733 11.124 9.7 27.902 9.702 39.026 0 3.169-2.762 7.977-2.435 10.739.733 2.763 3.168 2.434 7.977-.733 10.739-8.415 7.337-18.969 11.007-29.52 11.007z" fill="#ffddce"/><path d="m199.361 314.081c8.255-1.22 16.23-4.726 22.872-10.518 2.798-2.44 3.381-6.476 1.574-9.568-7.25 7.805-15.703 14.566-24.446 20.086z" fill="#ffcbbe"/><path d="m423.526 80.058c0-4.204-3.407-7.611-7.612-7.611s-7.611 3.407-7.611 7.611c0 3.383-2.751 6.135-6.134 6.135s-6.135-2.752-6.135-6.135c0-4.204-3.407-7.611-7.612-7.611s-7.611 3.407-7.611 7.611c0 9.097 5.717 16.884 13.746 19.956v29.594h15.223v-29.594c8.03-3.073 13.746-10.859 13.746-19.956z" fill="#ffd064"/><path d="m423.526 80.058c0-3.263-2.053-6.046-4.938-7.128-4.805 7.074-11.168 13.002-18.598 17.292-2.019 1.166-3.427 3.157-3.943 5.43l-1.489 6.559v27.398h15.223v-29.594c8.029-3.074 13.745-10.86 13.745-19.957z" fill="#ffc250"/><path d="m112.547 100.804c10.469-10.93 28.927-3.499 28.927 11.636 0-23.408 17.793-43.115 41.11-45.178 2.875-.254 5.787-.402 8.731-.438 61.498-.753 111.03 48.144 112.702 108.057.28 10.044-6.84 18.779-16.744 20.472l-14.193 2.426c-50.877 8.696-102.146-13.113-131.168-55.795-11.084 30.449-26.758 50.886-42.403 64.726-6.282 5.557-16.227 1.414-16.843-6.951l-.9-12.225c-2.476-33.608 9.561-64.576 30.781-86.73z" fill="#e28086"/><path d="m304.017 174.882c-1.392-49.85-35.916-92.074-82.898-104.418 25.089 19.848 41.357 50.221 42.303 84.121.28 10.044-6.84 18.779-16.744 20.472l-14.193 2.426c-20.411 3.489-40.886 2.067-59.962-3.642 28.371 20.975 64.562 30.091 100.556 23.939l14.193-2.426c9.904-1.693 17.025-10.428 16.745-20.472z" fill="#dd636e"/></g></svg>