<svg id="Capa_1" enable-background="new 0 0 512 512" height="512" viewBox="0 0 512 512" width="512" xmlns="http://www.w3.org/2000/svg"><g><g><path d="m413.168 341.767h-314.336l-25.293 94.579c-1.084 4.051.513 8.345 3.98 10.704l12.95 8.813c99.887 67.973 231.175 67.973 331.062 0l12.95-8.813c3.467-2.359 5.063-6.653 3.98-10.704z" fill="#30579d"/><path d="m438.461 436.346-25.293-94.579-26.967-4.79-4.789 19.526 15.843 59.239c1.083 4.051-.513 8.345-3.98 10.704l-12.95 8.813c-82.396 56.071-186.159 65.889-276.038 29.454 97.946 58.981 221.901 56.031 317.245-8.851l12.95-8.813c3.466-2.358 5.063-6.652 3.979-10.703z" fill="#26457d"/><path d="m394.962 504.033-7.731-42.802-15.287-10.501-15.287 10.501-7.731 42.802c-.184 1.019.311 2.039 1.224 2.526 13.623 7.256 29.964 7.256 43.587 0 .914-.487 1.409-1.508 1.225-2.526z" fill="#e28086"/><path d="m252.912 137.96-248.659 115.386c-5.664 2.628-5.664 10.68 0 13.308l248.66 126.783c1.958.909 4.217.909 6.175 0l248.66-126.783c5.664-2.628 5.664-10.68 0-13.308l-248.66-115.386c-1.959-.909-4.217-.909-6.176 0z" fill="#30579d"/><path d="m512 260.004v31.227c0 2.66-1.411 5.334-4.247 6.645l-248.668 115.391c-1.961.912-4.209.912-6.17 0l-248.668-115.391c-2.836-1.311-4.247-3.984-4.247-6.645v-31.227c0 2.66 1.411 5.334 4.247 6.645l19.311 8.969 229.357 106.422c1.961.912 4.209.912 6.17 0l229.357-106.422 19.311-8.969c2.836-1.311 4.247-3.984 4.247-6.645z" fill="#21386b"/><path d="m371.944 440.443c-4.268 0-7.726-3.459-7.726-7.726v-97.845c0-.511-.272-.991-.709-1.255l-111.489-66.994c-3.657-2.198-4.841-6.945-2.643-10.603 2.198-3.657 6.947-4.84 10.603-2.643l111.488 66.995c5.059 3.041 8.202 8.597 8.202 14.5v97.845c0 4.267-3.459 7.726-7.726 7.726z" fill="#f9f6f6"/><path d="m387.373 461.231h-30.859c-.775 0-1.403-.628-1.403-1.403v-15.43c0-9.296 7.536-16.832 16.832-16.832 9.296 0 16.832 7.536 16.832 16.832v15.43c.001.775-.627 1.403-1.402 1.403z" fill="#ffe07d"/></g><path d="m91.626 35.655c-1.347 0-2.438-1.092-2.438-2.438v-30.774c0-1.96-2.196-3.119-3.815-2.013l-76.684 52.42c-1.416.968-1.416 3.058 0 4.026l76.684 52.42c1.618 1.106 3.815-.053 3.815-2.013v-30.773c0-1.347 1.092-2.438 2.438-2.438h84.28c1.347 0 2.438 1.092 2.438 2.438v176.706c0 .904.733 1.637 1.637 1.637h35.143c.904 0 1.637-.733 1.637-1.637v-215.123c0-1.347-1.092-2.438-2.438-2.438z" fill="#95d6a4"/><path d="m420.374 88.303c1.347 0 2.438-1.092 2.438-2.438v-30.774c0-1.96 2.196-3.119 3.815-2.013l76.684 52.42c1.417.968 1.417 3.058 0 4.026l-76.684 52.42c-1.618 1.106-3.815-.053-3.815-2.013v-30.773c0-1.347-1.092-2.438-2.438-2.438h-84.28c-1.347 0-2.438 1.092-2.438 2.438v124.058c0 .904-.733 1.637-1.637 1.637h-35.143c-.904 0-1.637-.733-1.637-1.637v-162.475c0-1.347 1.092-2.438 2.439-2.438z" fill="#ffe07d"/></g></svg>