<svg id="Capa_1" enable-background="new 0 0 512 512" height="512" viewBox="0 0 512 512" width="512" xmlns="http://www.w3.org/2000/svg"><g><path d="m324.5 269.5-227 190h-90c0 24.853 20.147 45 45 45h317z" fill="#dfedff"/><path d="m324.5 269.5v190c0 24.853 20.147 45 45 45h30v-235z" fill="#bfdcff"/><path d="m384.5 37.5v464.429c4.693 1.659 9.739 2.571 15 2.571 24.853 0 45-20.147 45-45v-452h-30z" fill="#dfedff"/><path d="m97.5 7.5v452h257c0 19.592 12.524 36.25 30 42.429 17.476-6.179 30-22.837 30-42.429v-452z" fill="#fff"/><path d="m157.5 253.5v70h60l30-70z" fill="#ffb739"/><path d="m217.5 183.5v140h60l30-140z" fill="#ff7149"/><path d="m277.5 113.5h60v210h-60z" fill="#ff2b59"/><path d="m474.5 369.5h-30l-30 30 30 30h30c16.569 0 30-13.431 30-30s-13.431-30-30-30z" fill="#ff4e51"/><path d="m37.5 381.273-17.904 3.513c-6.893 1.354-12.096 7.424-12.096 14.714s5.203 13.36 12.096 14.713l17.904 3.513 20-18.227z" fill="#3d5168"/><path d="m97.5 369.5-60 11.773v36.454l60 11.773 30-30z" fill="#ffeac3"/><path d="m414.5 369.5-30 30 30 30h30v-60z" fill="#fff7e8"/><path d="m97.5 399.5v30h317v-30l-158.5-20z" fill="#ff9441"/><path d="m97.5 369.5h317v30h-317z" fill="#ffb739"/><path d="m157.5 331h180c4.143 0 7.5-3.357 7.5-7.5v-210c0-4.143-3.357-7.5-7.5-7.5h-60c-4.143 0-7.5 3.357-7.5 7.5v62.5h-52.5c-4.143 0-7.5 3.357-7.5 7.5v62.5h-52.5c-4.143 0-7.5 3.357-7.5 7.5v70c0 4.143 3.357 7.5 7.5 7.5zm127.5-210h45v195h-45zm-60 70h45v125h-45zm-60 70h45v55h-45z"/><path d="m367.5 331h17c4.143 0 7.5-3.357 7.5-7.5s-3.357-7.5-7.5-7.5h-9.5v-55h9.5c4.143 0 7.5-3.357 7.5-7.5s-3.357-7.5-7.5-7.5h-9.5v-55h9.5c4.143 0 7.5-3.357 7.5-7.5s-3.357-7.5-7.5-7.5h-9.5v-55h9.5c4.143 0 7.5-3.357 7.5-7.5s-3.357-7.5-7.5-7.5h-17c-4.143 0-7.5 3.357-7.5 7.5v210c0 4.143 3.357 7.5 7.5 7.5z"/><path d="m474.5 362h-22.5v-354.5c0-4.143-3.357-7.5-7.5-7.5h-347c-4.143 0-7.5 3.357-7.5 7.5v355.829l-71.849 14.099c-10.517 2.063-18.151 11.346-18.151 22.072s7.634 20.009 18.151 22.072l77.904 15.287c.476.094.96.141 1.444.141h339.501v22.5c0 20.678-16.822 37.5-37.5 37.5s-37.5-16.822-37.5-37.5c0-4.143-3.357-7.5-7.5-7.5h-347c-4.143 0-7.5 3.357-7.5 7.5 0 28.948 23.552 52.5 52.5 52.5h347c28.948 0 52.5-23.552 52.5-52.5v-22.5h22.5c20.678 0 37.5-16.822 37.5-37.5s-16.822-37.5-37.5-37.5zm-422 135c-18.109 0-33.262-12.904-36.747-30h331.781c1.677 11.673 7.208 22.118 15.259 30zm384.5-482v347h-332v-347zm-332 392h302v15h-302zm302-15h-302v-15h302zm-317 28.385-45-8.83v-24.11l45-8.83zm-75-20.885c0-3.574 2.54-6.666 6.04-7.354l8.96-1.758v18.224l-8.96-1.758c-3.5-.688-6.04-3.78-6.04-7.354zm407 22.5v-45h15v45zm52.5 0h-22.5v-45h22.5c12.406 0 22.5 10.094 22.5 22.5s-10.094 22.5-22.5 22.5z"/></g></svg>