<svg id="Capa_1" enable-background="new 0 0 512 512" height="512" viewBox="0 0 512 512" width="512" xmlns="http://www.w3.org/2000/svg"><g><path d="m474.5 504.5h30v-407h-30l-60 203.5z" fill="#728192"/><path d="m7.5 97.5v407h89.667l158.666-203.5.167.214v-203.714z" fill="#a6b0bd"/><path d="m464.5 427.5 10-30v-30l-10-30 10-30v-30l-10-30 10-30v-30l-10-30 10-30v-30h-218.5v203.714l158.167 203.286h60.333v-47z" fill="#8c98a7"/><path d="m384.5 504.5h30v-152l-158.5-90z" fill="#728192"/><path d="m97.5 352.5v152h90l68.5-30 68.5 30h60v-212z" fill="#8c98a7"/><path d="m274.5 362.5 20 142h30v-122z" fill="#89c1ff"/><path d="m226 362.5 30 142h38.5v-142z" fill="#bfdcff"/><path d="m187.5 382.5v122h68.5v-152z" fill="#dfedff"/><path d="m244.5 332.5 50 50h30v-50z" fill="#ffeac3"/><path d="m187.5 332.5h107v50h-107z" fill="#fff"/><path d="m384.5 352.5h30v-45l-60-30z" fill="#c0c8d2"/><path d="m384.5 352.5v-75l-287 30v45z" fill="#dae0e7"/><path d="m384.5 7.5-128.5 150 128.5 150h30v-300z" fill="#a6b0bd"/><path d="m384.5 7.5h-287v300h287v-30l-20-30 20-30v-30l-20-30 20-30v-30l-20-30 20-30z" fill="#c0c8d2"/><path d="m37.5 397.5h30v60h-30z" fill="#ffeac3"/><path d="m37.5 307.5h30v60h-30z" fill="#fff"/><path d="m37.5 217.5h30v60h-30z" fill="#ffeac3"/><path d="m37.5 127.5h30v60h-30z" fill="#fff"/><path d="m444.5 397.5h30v60h-30z" fill="#fff"/><path d="m444.5 307.5h30v60h-30z" fill="#ffeac3"/><path d="m444.5 217.5h30v60h-30z" fill="#fff"/><path d="m444.5 127.5h30v60h-30z" fill="#ffeac3"/><path d="m127.5 217.5v60h60l30-30-30-30z" fill="#dfedff"/><path d="m354.5 217.5-20 30 20 30h30v-60z" fill="#bfdcff"/><path d="m324.5 217.5-30 30 30 30h30v-60z" fill="#dfedff"/><path d="m187.5 217.5h137v60h-137z" fill="#fff"/><path d="m127.5 127.5v60h60l30-30-30-30z" fill="#dfedff"/><path d="m354.5 127.5-20 30 20 30h30v-60z" fill="#bfdcff"/><path d="m324.5 127.5-30 30 30 30h30v-60z" fill="#dfedff"/><path d="m187.5 127.5h137v60h-137z" fill="#fff"/><path d="m127.5 37.5v60h60l30-30-30-30z" fill="#dfedff"/><path d="m354.5 37.5-20 30 20 30h30v-60z" fill="#bfdcff"/><path d="m324.5 37.5-30 30 30 30h30v-60z" fill="#dfedff"/><path d="m187.5 37.5h137v60h-137z" fill="#fff"/><path d="m67.5 390h-30c-4.143 0-7.5 3.357-7.5 7.5v60c0 4.143 3.357 7.5 7.5 7.5h30c4.143 0 7.5-3.357 7.5-7.5v-60c0-4.143-3.357-7.5-7.5-7.5zm-7.5 60h-15v-45h15z"/><path d="m67.5 300h-30c-4.143 0-7.5 3.357-7.5 7.5v60c0 4.143 3.357 7.5 7.5 7.5h30c4.143 0 7.5-3.357 7.5-7.5v-60c0-4.143-3.357-7.5-7.5-7.5zm-7.5 60h-15v-45h15z"/><path d="m67.5 210h-30c-4.143 0-7.5 3.357-7.5 7.5v60c0 4.143 3.357 7.5 7.5 7.5h30c4.143 0 7.5-3.357 7.5-7.5v-60c0-4.143-3.357-7.5-7.5-7.5zm-7.5 60h-15v-45h15z"/><path d="m67.5 120h-30c-4.143 0-7.5 3.357-7.5 7.5v60c0 4.143 3.357 7.5 7.5 7.5h30c4.143 0 7.5-3.357 7.5-7.5v-60c0-4.143-3.357-7.5-7.5-7.5zm-7.5 60h-15v-45h15z"/><path d="m444.5 465h30c4.143 0 7.5-3.357 7.5-7.5v-60c0-4.143-3.357-7.5-7.5-7.5h-30c-4.143 0-7.5 3.357-7.5 7.5v60c0 4.143 3.357 7.5 7.5 7.5zm7.5-60h15v45h-15z"/><path d="m444.5 375h30c4.143 0 7.5-3.357 7.5-7.5v-60c0-4.143-3.357-7.5-7.5-7.5h-30c-4.143 0-7.5 3.357-7.5 7.5v60c0 4.143 3.357 7.5 7.5 7.5zm7.5-60h15v45h-15z"/><path d="m444.5 285h30c4.143 0 7.5-3.357 7.5-7.5v-60c0-4.143-3.357-7.5-7.5-7.5h-30c-4.143 0-7.5 3.357-7.5 7.5v60c0 4.143 3.357 7.5 7.5 7.5zm7.5-60h15v45h-15z"/><path d="m444.5 195h30c4.143 0 7.5-3.357 7.5-7.5v-60c0-4.143-3.357-7.5-7.5-7.5h-30c-4.143 0-7.5 3.357-7.5 7.5v60c0 4.143 3.357 7.5 7.5 7.5zm7.5-60h15v45h-15z"/><path d="m127.5 285h257c4.143 0 7.5-3.357 7.5-7.5v-60c0-4.143-3.357-7.5-7.5-7.5h-257c-4.143 0-7.5 3.357-7.5 7.5v60c0 4.143 3.357 7.5 7.5 7.5zm67.5-15v-45h122v45zm182 0h-45v-45h45zm-242-45h45v45h-45z"/><path d="m127.5 195h257c4.143 0 7.5-3.357 7.5-7.5v-60c0-4.143-3.357-7.5-7.5-7.5h-257c-4.143 0-7.5 3.357-7.5 7.5v60c0 4.143 3.357 7.5 7.5 7.5zm67.5-15v-45h122v45zm182 0h-45v-45h45zm-242-45h45v45h-45z"/><path d="m127.5 105h257c4.143 0 7.5-3.357 7.5-7.5v-60c0-4.143-3.357-7.5-7.5-7.5h-257c-4.143 0-7.5 3.357-7.5 7.5v60c0 4.143 3.357 7.5 7.5 7.5zm67.5-15v-45h122v45zm182 0h-45v-45h45zm-242-45h45v45h-45z"/><path d="m504.5 90h-82.5v-82.5c0-4.143-3.357-7.5-7.5-7.5h-317c-4.143 0-7.5 3.357-7.5 7.5v82.5h-82.5c-4.143 0-7.5 3.357-7.5 7.5v407c0 4.143 3.357 7.5 7.5 7.5h497c4.143 0 7.5-3.357 7.5-7.5v-407c0-4.143-3.357-7.5-7.5-7.5zm-317 315c-4.143 0-7.5 3.357-7.5 7.5v84.5h-75v-137h75v22.5c0 4.143 3.357 7.5 7.5 7.5h61v107h-53.5v-84.5c0-4.143-3.357-7.5-7.5-7.5zm219.5-60h-302v-30h302zm-90 30h-122v-15h122zm-53.5 15h53.5v107h-53.5zm68.5-30h75v137h-75zm-227-345h302v285h-302zm-90 90h75v392h-75zm482 392h-75v-392h75z"/></g></svg>