<svg id="Layer_1" enable-background="new 0 0 91 91" height="512" viewBox="0 0 91 91" width="512" xmlns="http://www.w3.org/2000/svg"><g><path d="m88.26 23.88-21.6-20.58v12.58c0 4.418 3.582 8 8 8z" fill="#afdcc9"/><path d="m88.26 25.63h-13.59c-5.384-.005-9.749-4.366-9.76-9.75v-12.58c-.02-.966.748-1.766 1.714-1.785.483-.01.948.18 1.286.525l21.6 20.57c.69.676.702 1.784.025 2.475-.326.332-.77.521-1.235.525zm-19.85-18.24v8.49c.011 3.451 2.809 6.245 6.26 6.25h9.22z" fill="#4e7a9e"/><path d="m62.03 65.68 9.3 12.33-10.09 1.16-3.9 9.39-9.81-13.01z" fill="#f0adab"/><path d="m28.88 65.59-9.21 12.42 10.09 1.16 3.89 9.39 9.82-13.01z" fill="#f0adab"/><path d="m33.65 90.31h-.22c-.64-.068-1.19-.483-1.43-1.08l-3.5-8.44-9.07-1c-.958-.125-1.634-1.003-1.509-1.962.039-.301.156-.586.339-.828l9.22-12.42c.555-.762 1.617-.94 2.39-.4l14.58 9.92c.798.545 1.004 1.634.459 2.432-.016.023-.032.046-.049.068l-9.81 13c-.328.444-.847.708-1.4.71zm-10.77-13.69 7.08.81c.632.074 1.175.483 1.42 1.07l2.72 6.56 6.9-9.06-11.71-8z" fill="#4e7a9e"/><path d="m45.4 38.84c-10.112 0-18.31 8.198-18.31 18.31s8.198 18.31 18.31 18.31 18.31-8.198 18.31-18.31c.006-10.107-8.183-18.304-18.29-18.31-.007 0-.013 0-.02 0z" fill="#fae386"/><path d="m54.66 55.58-3.81 2.77c-.439.314-.621.878-.45 1.39l1.46 4.49c.213.651-.141 1.351-.792 1.565-.384.126-.804.057-1.128-.185l-3.8-2.77c-.438-.319-1.032-.319-1.47 0l-3.81 2.77c-.578.368-1.344.197-1.712-.38-.189-.297-.243-.661-.148-1l1.45-4.49c.171-.512-.011-1.076-.45-1.39l-3.81-2.77c-.552-.414-.664-1.198-.25-1.75.232-.309.594-.494.98-.5h4.71c.539.006 1.02-.338 1.19-.85l1.4-4.48c.22-.654.928-1.007 1.583-.787.371.125.663.416.787.787l1.41 4.48c.168.508.644.851 1.18.85h4.71c.684-.029 1.262.502 1.291 1.187.018.42-.178.82-.521 1.063z" fill="#fff"/><path d="m59.57 30.79h-44.17c-.966 0-1.75-.784-1.75-1.75s.784-1.75 1.75-1.75h44.17c.966 0 1.75.784 1.75 1.75s-.784 1.75-1.75 1.75z" fill="#afdcc9"/><path d="m32.06 19.23h-16.66c-.966 0-1.75-.784-1.75-1.75s.784-1.75 1.75-1.75h16.66c.966 0 1.75.784 1.75 1.75s-.783 1.75-1.75 1.75z" fill="#afdcc9"/><path d="m51.56 19.23h-8.83c-.966 0-1.75-.784-1.75-1.75s.784-1.75 1.75-1.75h8.83c.966 0 1.75.784 1.75 1.75s-.784 1.75-1.75 1.75z" fill="#afdcc9"/><g fill="#4e7a9e"><path d="m80.26 76.6h-2.21c-.966 0-1.75-.784-1.75-1.75s.784-1.75 1.75-1.75h2.21c3.452 0 6.25-2.798 6.25-6.25v-43c0-.966.784-1.75 1.75-1.75s1.75.784 1.75 1.75v43c-.006 5.382-4.368 9.744-9.75 9.75z"/><path d="m12.45 76.6h-9.71c-.963-.006-1.74-.787-1.74-1.75v-71.55c0-.963.777-1.744 1.74-1.75h63.92c.966 0 1.75.784 1.75 1.75s-.784 1.75-1.75 1.75h-62.17v68.05h8c.966 0 1.75.784 1.75 1.75s-.784 1.75-1.75 1.75z"/><path d="m88.26 25.63h-13.59c-5.384-.005-9.749-4.366-9.76-9.75v-12.58c-.02-.966.748-1.766 1.714-1.785.483-.01.948.18 1.286.525l21.6 20.57c.69.676.702 1.784.025 2.475-.326.332-.77.521-1.235.525zm-19.85-18.24v8.49c.011 3.451 2.809 6.245 6.26 6.25h9.22z"/><path d="m57.34 90.26c-.528-.015-1.021-.268-1.34-.69l-9.27-12.23c-.557-.79-.368-1.882.422-2.439.753-.531 1.788-.387 2.368.329l7.38 9.77 2.72-6.56c.244-.568.768-.967 1.38-1.05l7.05-.81-7.45-9.89c-.609-.751-.493-1.853.258-2.461.751-.609 1.853-.493 2.461.258.025.03.048.062.071.094l9.3 12.33c.581.773.425 1.87-.348 2.45-.249.187-.543.304-.852.34l-9.07 1-3.42 8.479c-.24.583-.775.991-1.4 1.07z"/><path d="m33.65 90.26h-.22c-.639-.07-1.188-.485-1.43-1.08l-3.5-8.43-9.07-1c-.96-.109-1.651-.975-1.542-1.936.035-.306.149-.597.332-.844l9.26-12.47c.577-.776 1.674-.937 2.45-.36s.937 1.674.36 2.45l-7.41 10 7.08.82c.632.074 1.175.483 1.42 1.07l2.72 6.52 7.43-9.86c.557-.79 1.649-.979 2.439-.422s.979 1.649.422 2.439c-.023.032-.046.063-.071.094l-9.27 12.3c-.327.445-.847.708-1.4.709z"/><path d="m45.4 77.2c-11.079 0-20.06-8.981-20.06-20.06s8.981-20.06 20.06-20.06 20.06 8.981 20.06 20.06v.01c-.017 11.07-8.99 20.039-20.06 20.05zm0-36.61c-9.146.022-16.542 7.454-16.52 16.6s7.454 16.542 16.6 16.52c9.13-.022 16.52-7.43 16.52-16.56-.011-9.157-7.443-16.571-16.6-16.56zm5.38 27c-.641-.001-1.265-.208-1.78-.59l-3.5-2.53-3.5 2.53c-1.346.966-3.22.658-4.186-.688-.551-.768-.708-1.75-.424-2.652l1.34-4.14-3.52-2.52c-1.337-.979-1.626-2.856-.647-4.193.569-.776 1.475-1.232 2.437-1.227h4.35l1.34-4.13c.405-1.226 1.549-2.056 2.84-2.06 1.295 0 2.444.83 2.85 2.06l1.34 4.13h4.28c1.657-.009 3.008 1.326 3.017 2.983.005.962-.451 1.868-1.227 2.437l-3.51 2.55 1.34 4.14c.383 1.221-.051 2.55-1.08 3.31-.508.381-1.125.591-1.76.6zm-5.27-6.74c.625-.004 1.235.193 1.74.56l2.56 1.86-1-3c-.399-1.228.032-2.573 1.07-3.34l2.56-1.86h-3.12c-1.298-.001-2.448-.836-2.85-2.07l-1-3-1 3c-.406 1.23-1.555 2.06-2.85 2.06h-3.09l2.55 1.85c1.05.767 1.487 2.124 1.08 3.36l-1 3 2.54-1.86c.531-.368 1.164-.56 1.81-.55z"/></g></g></svg>